<svg version="1.1" viewBox="0.0 0.0 960.0 960.0" fill="none" stroke="none" stroke-linecap="square" stroke-miterlimit="10" xmlns:xlink="http://www.w3.org/1999/xlink" xmlns="http://www.w3.org/2000/svg"><clipPath id="p.0"><path d="m0 0l960.0 0l0 960.0l-960.0 0l0 -960.0z" clip-rule="nonzero"/></clipPath><g clip-path="url(#p.0)"><path fill="#000000" fill-opacity="0.0" d="m0 0l960.0 0l0 960.0l-960.0 0z" fill-rule="evenodd"/><path fill="#6c5ce7" d="m0.5984252 159.80373l0 0c0 -88.257164 71.54656 -159.80373 159.80373 -159.80373l639.1957 0l0 0c42.38257 0 83.0293 16.836414 112.99829 46.805428c29.969055 29.96901 46.80542 70.615715 46.80542 112.9983l0 640.3926c0 88.25714 -71.54651 159.80371 -159.80371 159.80371l-639.1957 0l0 0c-88.25716 0 -159.80373 -71.54657 -159.80373 -159.80371z" fill-rule="evenodd"/><path fill="#000000" fill-opacity="0.0" d="m69.99213 138.26509l851.2126 0l0 109.07086l-851.2126 0z" fill-rule="evenodd"/><path fill="#ffffff" d="m479.32495 659.2651l-85.328125 0l0 -373.3281l65.0625 0q70.40625 0 106.140625 25.875q35.734375 25.859375 35.734375 72.796875q0 53.328125 -44.796875 78.390625q65.0625 24.53125 65.0625 92.265594q0 48.0 -35.203125 76.0q-35.203125 28.0 -106.671875 28.0zm0 -16.0q25.078125 0 45.875 -4.0q20.796875 -4.0 39.734375 -13.328125q18.9375 -9.34375 29.59375 -27.46875q10.671875 -18.140625 10.671875 -43.203125q0 -57.06247 -54.9375 -77.328094l-32.0 -11.734375l29.875 -17.0625q36.796875 -20.265625 36.796875 -64.53125q0 -82.671875 -125.875 -82.671875l-49.0625 0l0 341.3281l69.328125 0z" fill-rule="nonzero"/></g></svg>