<svg width="28" height="28" viewBox="0 0 28 28" fill="none" xmlns="http://www.w3.org/2000/svg">
<path fill-rule="evenodd" clip-rule="evenodd" d="M3.20964 18.5942C2.93404 18.1595 2.92988 17.6058 3.1989 17.1669L13.3282 0.643983C13.8916 -0.275016 15.252 -0.194661 15.7033 0.784263L24.9569 20.8575C25.3002 21.6023 24.905 22.4786 24.1194 22.7143L9.72474 27.0327C9.14558 27.2064 8.52155 26.9736 8.19781 26.4629L3.20964 18.5942ZM14.4969 5.47515C14.5945 4.98908 15.2605 4.91899 15.4572 5.37408L21.8402 20.144C21.9603 20.4221 21.8108 20.7428 21.5205 20.8294L11.5749 23.7983C11.2093 23.9074 10.8592 23.588 10.9343 23.2139L14.4969 5.47515Z" fill="white"/>
</svg>
