<svg width="20" height="20" viewBox="0 0 20 20" fill="none" xmlns="http://www.w3.org/2000/svg">
<path fill-rule="evenodd" clip-rule="evenodd" d="M18.4558 18.4853C19.2339 17.7073 19.3805 16.6549 19.2947 15.746C19.2078 14.8254 18.8697 13.8258 18.3896 12.8287C17.957 11.9302 17.3802 10.9745 16.6821 10C17.3802 9.0255 17.957 8.0698 18.3896 7.1713C18.8697 6.1742 19.2078 5.1746 19.2947 4.254C19.3805 3.34508 19.2339 2.29273 18.4558 1.51472C17.6778 0.736707 16.6255 0.590037 15.7165 0.675837C14.796 0.762727 13.7964 1.10086 12.7993 1.58094C11.9007 2.01357 10.945 2.59036 9.9706 3.28842C8.9961 2.59036 8.0404 2.01357 7.1418 1.58094C6.1447 1.10086 5.14509 0.762727 4.22459 0.675837C3.31563 0.590037 2.26329 0.736707 1.48528 1.51472C0.707265 2.29273 0.560595 3.34508 0.646395 4.254C0.733295 5.1746 1.07141 6.1742 1.55149 7.1713C1.98413 8.0698 2.56091 9.0255 3.25897 10C2.56091 10.9745 1.98413 11.9302 1.55149 12.8287C1.07141 13.8258 0.733295 14.8254 0.646395 15.746C0.560595 16.6549 0.707265 17.7073 1.48528 18.4853C2.26329 19.2633 3.31563 19.41 4.22459 19.3242C5.14509 19.2373 6.1447 18.8991 7.1418 18.4191C8.0404 17.9864 8.9961 17.4096 9.9706 16.7116C10.945 17.4096 11.9007 17.9864 12.7993 18.4191C13.7964 18.8991 14.796 19.2373 15.7165 19.3242C16.6255 19.41 17.6778 19.2633 18.4558 18.4853ZM9.9706 14.948C10.8399 14.2684 11.724 13.4874 12.591 12.6205C13.458 11.7535 14.239 10.8693 14.9186 10C14.239 9.1307 13.458 8.2465 12.591 7.3795C11.724 6.5126 10.8399 5.7316 9.9706 5.052C9.1012 5.7316 8.21709 6.5126 7.35009 7.3795C6.48309 8.2465 5.7021 9.1307 5.0225 10C5.7021 10.8693 6.48309 11.7535 7.35009 12.6205C8.21709 13.4874 9.1012 14.2684 9.9706 14.948ZM11.1498 15.8145C11.968 15.1558 12.7885 14.4195 13.5893 13.6187C14.39 12.818 15.1264 11.9974 15.7851 11.1792C17.7187 13.9919 18.4627 16.4819 17.4576 17.487C16.4524 18.4922 13.9625 17.7482 11.1498 15.8145ZM4.156 11.1792C4.8148 11.9974 5.5511 12.818 6.3518 13.6187C7.1526 14.4195 7.9731 15.1558 8.7914 15.8145C5.9786 17.7482 3.48871 18.4922 2.48355 17.487C1.47839 16.4819 2.22238 13.9919 4.156 11.1792ZM4.156 8.8208C4.8148 8.0026 5.5511 7.182 6.3518 6.3813C7.1526 5.5805 7.9731 4.8442 8.7914 4.1855C5.9786 2.25182 3.48871 1.50783 2.48355 2.51299C1.47839 3.51815 2.22238 6.0081 4.156 8.8208ZM11.1498 4.1855C11.968 4.8442 12.7885 5.5805 13.5893 6.3813C14.39 7.182 15.1264 8.0026 15.7851 8.8208C17.7187 6.0081 18.4627 3.51815 17.4576 2.51299C16.4524 1.50783 13.9625 2.25182 11.1498 4.1855Z" fill="white" stroke="white" stroke-width="0.5"/>
</svg>
