<svg width="493" height="721" viewBox="0 0 493 721" fill="none" xmlns="http://www.w3.org/2000/svg">
<path fill-rule="evenodd" clip-rule="evenodd" d="M293.225 695.162H288.226V690.379C287.281 691.772 286.078 692.975 284.68 693.926C282.796 695.179 280.613 695.834 278.13 695.893C278.007 695.896 277.885 695.898 277.762 695.898C276.032 695.91 274.317 695.591 272.71 694.96C272.576 694.907 272.444 694.852 272.312 694.794C270.926 694.189 269.833 693.457 269.034 692.597C268.863 692.414 268.703 692.221 268.555 692.02C268.053 691.328 267.65 690.571 267.356 689.771C267.133 689.171 266.958 688.554 266.832 687.927C266.659 687.104 266.552 685.916 266.51 684.361C266.497 683.833 266.49 683.305 266.49 682.777V662.606H272.08V680.662C272.079 681.286 272.085 681.909 272.098 682.533C272.139 684.402 272.247 685.719 272.421 686.486C272.588 687.207 272.885 687.892 273.297 688.509C273.664 689.049 274.124 689.521 274.656 689.905C275.445 690.471 276.355 690.85 277.316 691.012C277.832 691.103 278.355 691.148 278.88 691.146C280.556 691.146 282.13 690.722 283.599 689.874C285.069 689.026 286.109 687.871 286.72 686.41C287.271 685.09 287.574 683.232 287.627 680.836C287.633 680.574 287.636 680.311 287.636 680.049V662.606H293.225V695.162ZM256.337 683.237L261.832 683.942C261.615 685.372 261.213 686.768 260.637 688.098C259.867 689.875 258.699 691.457 257.221 692.725C254.748 694.84 251.71 695.898 248.108 695.898C246.425 695.914 244.748 695.68 243.136 695.204C240.869 694.521 238.828 693.252 237.225 691.529C235.766 689.951 234.689 688.067 234.076 686.018C233.633 684.614 233.343 683.071 233.205 681.388C233.141 680.596 233.109 679.801 233.11 679.006C233.11 675.491 233.7 672.416 234.881 669.779C235.532 668.285 236.466 666.928 237.634 665.78C238.419 665.021 239.305 664.371 240.268 663.848C242.675 662.53 245.386 661.849 248.139 661.87C249.438 661.861 250.733 661.996 252.002 662.271C253.797 662.653 255.482 663.433 256.927 664.553C258.621 665.897 259.901 667.682 260.62 669.707C260.915 670.509 261.144 671.333 261.305 672.171L255.871 672.998C255.701 672.262 255.463 671.543 255.158 670.85C254.796 670.041 254.353 669.341 253.83 668.751C253.612 668.505 253.375 668.275 253.123 668.063C251.92 667.054 250.408 666.474 248.831 666.419C248.673 666.411 248.515 666.407 248.356 666.407C247.18 666.394 246.012 666.595 244.91 667C243.588 667.507 242.414 668.33 241.494 669.396C239.802 671.313 238.923 674.303 238.859 678.365C238.856 678.528 238.855 678.691 238.855 678.853C238.85 679.984 238.916 681.115 239.054 682.238C239.395 684.909 240.178 686.958 241.401 688.387C242.132 689.267 243.043 689.985 244.074 690.494C245.105 691.003 246.233 691.291 247.384 691.341C247.605 691.354 247.825 691.361 248.046 691.361C248.982 691.369 249.913 691.231 250.805 690.951C251.822 690.624 252.756 690.084 253.542 689.368C254.261 688.705 254.842 687.911 255.254 687.029C255.767 685.966 256.128 684.703 256.337 683.237ZM185.013 695.162H178.989V650.222H196.16C199.182 650.222 201.49 650.364 203.085 650.65C205.32 651.018 207.193 651.718 208.705 652.75C209.817 653.519 210.768 654.492 211.506 655.617C211.82 656.089 212.103 656.58 212.353 657.088C213.189 658.793 213.655 660.653 213.72 662.546C213.73 662.77 213.735 662.995 213.735 663.219C213.754 665.024 213.441 666.817 212.811 668.511C212.185 670.144 211.244 671.642 210.04 672.922C207.576 675.568 203.126 676.891 196.688 676.891H185.013V695.162ZM226.31 695.162H220.721V662.606H226.31V695.162ZM309.527 695.162H303.937V662.606H309.527V695.162ZM185.013 655.525V671.588H196.781C197.738 671.592 198.693 671.542 199.644 671.437C201.613 671.21 203.178 670.726 204.34 669.987C204.598 669.824 204.842 669.642 205.072 669.442C206.255 668.4 207.051 666.996 207.331 665.455C207.464 664.779 207.529 664.092 207.525 663.403C207.531 662.578 207.426 661.755 207.212 660.957C206.981 660.103 206.598 659.296 206.081 658.575C205.118 657.236 203.85 656.352 202.277 655.923C201.979 655.849 201.677 655.791 201.372 655.751C200.288 655.6 198.717 655.525 196.657 655.525H185.013ZM308.285 658.56H303.658L307.788 649.976H315.116L308.285 658.56ZM226.31 656.567H220.721V650.222H226.31V656.567Z" fill="#352F2D"/>
<path fill-rule="evenodd" clip-rule="evenodd" d="M219.362 624.194H213.771V591.158H218.771V595.793C219.809 594.173 221.228 592.833 222.903 591.889C224.319 591.086 225.893 590.601 227.514 590.468C227.933 590.43 228.353 590.411 228.773 590.411C229.633 590.406 230.49 590.478 231.337 590.626C232.658 590.864 233.806 591.301 234.784 591.936C236.347 592.951 237.45 594.372 238.092 596.197C238.912 594.956 239.913 593.846 241.062 592.903C243.102 591.251 245.657 590.369 248.28 590.411C249.28 590.404 250.277 590.502 251.256 590.704C252.524 590.976 253.634 591.438 254.587 592.088C255.034 592.394 255.45 592.744 255.828 593.133C256.659 594.011 257.29 595.058 257.678 596.203C258.205 597.681 258.468 599.453 258.468 601.517V624.194H252.908V603.383C252.908 601.643 252.799 600.281 252.58 599.298C252.525 599.043 252.453 598.792 252.365 598.546C252.028 597.635 251.415 596.853 250.61 596.31C250.538 596.261 250.466 596.213 250.392 596.166C249.673 595.718 248.866 595.431 248.025 595.327C247.698 595.285 247.368 595.263 247.037 595.264C246.015 595.253 245 595.425 244.038 595.772C242.991 596.163 242.042 596.781 241.26 597.581C239.728 599.127 238.962 601.6 238.962 605.001V624.194H233.371V602.73C233.371 600.312 232.941 598.481 232.081 597.238C232.055 597.202 232.03 597.166 232.004 597.13C231.448 596.381 230.663 595.834 229.768 595.572C229.28 595.418 228.739 595.322 228.144 595.283C227.94 595.27 227.736 595.264 227.531 595.264C225.957 595.264 224.502 595.679 223.167 596.509C221.961 597.26 221.015 598.365 220.457 599.673C220.388 599.829 220.323 599.988 220.262 600.148C220.059 600.703 219.9 601.272 219.787 601.852C219.543 603.055 219.404 604.505 219.37 606.201C219.364 606.485 219.362 606.769 219.362 607.054V624.194ZM165.656 608.205L171.682 609.729C171.223 611.587 170.555 613.386 169.692 615.093C168.53 617.409 166.884 619.447 164.864 621.068C161.582 623.67 157.57 624.972 152.828 624.972C151.175 624.981 149.524 624.851 147.892 624.584C145.17 624.123 142.824 623.252 140.854 621.97C138.39 620.35 136.362 618.148 134.948 615.557C134.535 614.818 134.163 614.056 133.834 613.275C132.266 609.532 131.448 605.517 131.429 601.457C131.427 601.322 131.427 601.186 131.427 601.05C131.416 598.943 131.616 596.839 132.024 594.771C132.446 592.634 133.16 590.565 134.145 588.623C135.84 585.208 138.539 582.396 141.879 580.565C145.237 578.734 149.004 577.787 152.827 577.813C152.859 577.813 152.89 577.813 152.921 577.813C154.765 577.799 156.602 578.015 158.392 578.456C160.568 578.993 162.615 579.959 164.414 581.297C166.896 583.17 168.828 585.678 170.007 588.558C170.357 589.385 170.657 590.233 170.906 591.096L164.973 592.496C163.917 589.177 162.385 586.761 160.376 585.247C159.045 584.258 157.507 583.582 155.878 583.27C154.863 583.069 153.831 582.971 152.797 582.976C151.459 582.967 150.124 583.107 148.816 583.392C147.093 583.763 145.463 584.479 144.023 585.496C141.672 587.176 140.021 589.432 139.068 592.262C138.117 595.083 137.634 598.042 137.639 601.019C137.639 604.693 138.145 607.924 139.158 610.714C139.214 610.868 139.272 611.022 139.332 611.176C140.461 614.069 142.216 616.231 144.597 617.662C146.928 619.079 149.605 619.822 152.331 619.808C153.824 619.821 155.31 619.604 156.736 619.165C158.262 618.686 159.678 617.91 160.904 616.884C163.244 614.934 164.828 612.041 165.656 608.205ZM335.283 614.333L340.812 613.462C340.915 614.242 341.111 615.006 341.395 615.74C341.815 616.837 342.507 617.808 343.405 618.564C344.824 619.746 346.807 620.337 349.354 620.337C351.922 620.337 353.827 619.813 355.069 618.766C355.489 618.419 355.859 618.015 356.168 617.567C356.671 616.836 356.938 615.967 356.933 615.08C356.942 614.516 356.814 613.958 356.559 613.454C356.328 613.009 355.99 612.617 355.545 612.277C355.461 612.213 355.375 612.152 355.287 612.094C355.074 611.961 354.851 611.845 354.621 611.747C353.632 611.312 351.949 610.795 349.572 610.196C345.539 609.176 342.724 608.292 341.125 607.543C341.098 607.53 341.071 607.518 341.045 607.505C340.269 607.141 339.548 606.67 338.904 606.106C338.332 605.601 337.84 605.014 337.442 604.363C336.625 603.03 336.2 601.494 336.215 599.93C336.204 598.504 336.551 597.097 337.224 595.84C337.886 594.598 338.827 593.528 339.973 592.713C340.643 592.219 341.499 591.782 342.543 591.404C342.869 591.286 343.198 591.178 343.53 591.08C344.741 590.725 345.988 590.512 347.248 590.443C347.618 590.422 347.989 590.411 348.36 590.411C349.49 590.407 350.619 590.486 351.738 590.649C352.971 590.834 354.114 591.126 355.166 591.527C355.17 591.528 355.174 591.53 355.178 591.531C355.853 591.784 356.505 592.095 357.126 592.461C357.814 592.87 358.404 593.329 358.898 593.839C359.119 594.066 359.324 594.308 359.511 594.564C359.955 595.182 360.321 595.854 360.599 596.563C360.851 597.189 361.061 597.876 361.231 598.624C361.31 598.974 361.379 599.327 361.437 599.681L355.97 600.428C355.877 599.753 355.687 599.095 355.404 598.475C355.038 597.684 354.493 596.989 353.811 596.446C353.222 595.984 352.55 595.637 351.832 595.425C351.281 595.254 350.675 595.137 350.014 595.073C349.598 595.033 349.181 595.014 348.764 595.015C348.132 595.013 347.501 595.043 346.873 595.105C345.602 595.237 344.582 595.514 343.812 595.935C343.621 596.039 343.438 596.158 343.266 596.291C342.93 596.546 342.626 596.843 342.363 597.174C341.882 597.769 341.619 598.511 341.62 599.277C341.615 599.989 341.856 600.682 342.303 601.237C342.525 601.525 342.787 601.778 343.082 601.991C343.459 602.268 343.914 602.514 344.446 602.73C344.588 602.781 344.731 602.83 344.876 602.875C345.599 603.106 346.93 603.487 348.87 604.02C349.042 604.067 349.213 604.114 349.385 604.161C353.34 605.219 356.099 606.085 357.663 606.759C358.526 607.123 359.328 607.621 360.037 608.234C360.531 608.666 360.97 609.158 361.344 609.698C361.91 610.528 362.299 611.466 362.488 612.454C362.619 613.124 362.683 613.805 362.679 614.488C362.676 616.307 362.144 618.086 361.149 619.607C361.116 619.659 361.082 619.71 361.049 619.762C359.961 621.41 358.393 622.686 356.343 623.588C354.293 624.49 351.973 624.941 349.385 624.941C348.155 624.948 346.926 624.862 345.708 624.686C343.179 624.306 341.138 623.499 339.585 622.265C338.132 621.095 337 619.575 336.296 617.846C335.827 616.717 335.488 615.538 335.283 614.333ZM328.76 624.194H323.759V619.341C322.814 620.754 321.611 621.976 320.212 622.941C318.327 624.211 316.143 624.877 313.66 624.937C313.537 624.94 313.414 624.941 313.291 624.941C311.561 624.953 309.846 624.63 308.238 623.989C308.105 623.935 307.972 623.879 307.84 623.821C306.453 623.207 305.36 622.464 304.56 621.592C304.39 621.406 304.23 621.21 304.082 621.006C303.58 620.304 303.176 619.536 302.882 618.724C302.66 618.115 302.484 617.489 302.358 616.853C302.185 616.018 302.078 614.811 302.036 613.234C302.023 612.698 302.016 612.162 302.016 611.627V591.158H307.607V609.48C307.607 610.113 307.613 610.746 307.626 611.379C307.667 613.276 307.775 614.613 307.949 615.391C308.116 616.122 308.413 616.817 308.825 617.443C309.193 617.991 309.653 618.47 310.186 618.859C310.974 619.434 311.884 619.818 312.845 619.983C313.362 620.076 313.885 620.121 314.41 620.119C316.087 620.119 317.661 619.689 319.131 618.828C320.601 617.967 321.642 616.796 322.253 615.313C322.804 613.974 323.107 612.089 323.16 609.657C323.166 609.391 323.169 609.124 323.169 608.858V591.158H328.76V624.194ZM182.927 601.33L177.46 600.583C177.889 598.56 178.558 596.872 179.466 595.52C179.607 595.31 179.757 595.105 179.913 594.906C180.587 594.067 181.4 593.351 182.317 592.789C183.018 592.351 183.805 591.969 184.677 591.642C184.735 591.62 184.794 591.599 184.852 591.578C186.99 590.806 189.465 590.417 192.276 590.411C192.297 590.411 192.318 590.411 192.338 590.411C193.245 590.408 194.152 590.448 195.055 590.529C195.936 590.611 196.748 590.735 197.492 590.903C198.074 591.031 198.645 591.199 199.203 591.407C199.766 591.616 200.315 591.864 200.844 592.147C201.378 592.436 201.848 592.749 202.254 593.084C202.557 593.333 202.835 593.61 203.085 593.911C203.593 594.535 204.002 595.234 204.298 595.982C204.523 596.546 204.699 597.128 204.825 597.722C205.005 598.643 205.098 600.279 205.105 602.632C205.105 602.716 205.105 602.801 205.105 602.885V610.351C205.104 611.26 205.109 612.169 205.117 613.077C205.144 615.827 205.216 617.858 205.333 619.171C205.362 619.525 205.405 619.877 205.462 620.228C205.7 621.607 206.171 622.929 206.875 624.194H201.036C200.698 623.509 200.435 622.789 200.253 622.047C200.097 621.413 199.984 620.769 199.917 620.119C197.847 621.882 195.853 623.126 193.938 623.852C192.16 624.518 190.285 624.882 188.387 624.931C188.182 624.938 187.977 624.941 187.772 624.941C185.189 624.941 183.031 624.49 181.3 623.589C180.618 623.237 179.985 622.797 179.417 622.281C178.52 621.482 177.798 620.505 177.297 619.412C176.796 618.319 176.527 617.134 176.506 615.932C176.5 615.783 176.497 615.634 176.497 615.484C176.497 613.866 176.864 612.389 177.6 611.051C178.155 610.023 178.898 609.109 179.791 608.357C180.015 608.17 180.247 607.995 180.489 607.831C181.559 607.11 182.728 606.547 183.959 606.161C184.142 606.103 184.326 606.048 184.511 605.996C184.861 605.905 185.214 605.824 185.569 605.754C186.346 605.597 187.293 605.444 188.408 605.293C188.765 605.245 189.123 605.2 189.48 605.156C193.13 604.721 196.001 604.217 198.094 603.645C198.551 603.522 199.004 603.383 199.451 603.228C199.455 603.094 199.458 602.959 199.462 602.825C199.475 602.308 199.482 601.961 199.482 601.785C199.482 601.779 199.482 601.772 199.482 601.766C199.482 599.547 198.983 597.965 197.984 597.021C197.956 596.995 197.927 596.969 197.898 596.944C197.209 596.348 196.408 595.897 195.541 595.618C194.871 595.392 194.128 595.232 193.311 595.141C192.72 595.076 192.125 595.045 191.531 595.046C188.901 595.046 186.96 595.508 185.707 596.431C185.168 596.838 184.706 597.338 184.342 597.907C184.021 598.394 183.734 598.956 183.482 599.593C183.261 600.16 183.075 600.74 182.927 601.33ZM272.353 636.855H266.762V591.158H271.856V595.45C272.386 594.701 272.986 594.003 273.647 593.365C274.331 592.705 275.096 592.136 275.925 591.671C277.394 590.854 279.168 590.435 281.245 590.412C281.304 590.412 281.364 590.411 281.423 590.411C282.95 590.398 284.468 590.638 285.918 591.119C286.965 591.475 287.96 591.969 288.877 592.589C291.031 594.04 292.657 596.088 293.754 598.733C294.643 600.901 295.176 603.199 295.332 605.538C295.378 606.167 295.4 606.797 295.4 607.427C295.409 609.189 295.227 610.948 294.857 612.671C294.566 614.006 294.139 615.309 293.583 616.557C292.947 618.009 292.081 619.349 291.018 620.524C290.219 621.396 289.306 622.154 288.303 622.779C286.872 623.688 285.29 624.332 283.632 624.679C282.772 624.854 281.896 624.942 281.019 624.941C279.155 624.941 277.483 624.547 276.002 623.759C275.068 623.268 274.203 622.656 273.428 621.939C273.041 621.578 272.682 621.188 272.353 620.773V636.855ZM271.825 607.863C271.819 608.974 271.887 610.084 272.028 611.186C272.373 613.771 273.153 615.792 274.37 617.25C274.381 617.263 274.392 617.275 274.403 617.288C276.121 619.321 278.202 620.337 280.646 620.337C281.71 620.342 282.765 620.13 283.745 619.715C284.725 619.299 285.611 618.689 286.348 617.92C286.586 617.683 286.813 617.436 287.029 617.179C287.759 616.288 288.325 615.274 288.699 614.183C289.356 612.35 289.685 610.088 289.685 607.396C289.691 606.235 289.615 605.076 289.456 603.926C289.287 602.746 289.024 601.681 288.668 600.731C288.301 599.719 287.768 598.776 287.091 597.939C286.497 597.205 285.798 596.562 285.016 596.033C283.797 595.216 282.361 594.786 280.895 594.797C279.171 594.802 277.503 595.413 276.185 596.525C275.594 597.008 275.054 597.549 274.573 598.141C273.72 599.204 273.074 600.419 272.67 601.721C272.106 603.457 271.825 605.505 271.825 607.863ZM199.451 609.667V607.614C198.772 607.886 198.079 608.122 197.375 608.32C195.869 608.752 194.029 609.144 191.856 609.496C191.345 609.578 190.832 609.656 190.319 609.729C188.551 609.985 187.181 610.264 186.209 610.568C185.949 610.648 185.693 610.742 185.443 610.849C184.935 611.065 184.465 611.36 184.05 611.723C183.737 612 183.464 612.318 183.237 612.669C182.719 613.467 182.461 614.354 182.461 615.329C182.448 615.988 182.573 616.642 182.827 617.25C183.081 617.858 183.459 618.407 183.936 618.86C184.007 618.929 184.079 618.996 184.153 619.061C184.712 619.543 185.363 619.906 186.066 620.127C186.93 620.412 187.944 620.555 189.108 620.555C190.229 620.562 191.345 620.42 192.428 620.131C193.274 619.902 194.089 619.569 194.854 619.139C195.871 618.58 196.77 617.83 197.504 616.93C197.916 616.418 198.267 615.86 198.55 615.266C198.764 614.804 198.929 614.322 199.045 613.826C199.277 612.868 199.41 611.71 199.444 610.351C199.449 610.123 199.451 609.895 199.451 609.667Z" fill="#352F2D"/>
<line x1="0.21875" y1="551.571" x2="492.246" y2="551.571" stroke="#2F9E41" stroke-width="3.28018"/>
<path d="M145.994 476.563C152.188 476.563 156.708 477.778 159.554 480.208C162.422 482.615 163.855 486.074 163.855 490.583C163.855 492.619 163.516 494.556 162.837 496.395C162.181 498.212 161.108 499.82 159.62 501.221C158.131 502.6 156.172 503.695 153.742 504.505C151.335 505.293 148.38 505.687 144.877 505.687H139.033V524.566H133.451V476.563H145.994ZM145.468 481.324H139.033V500.893H144.253C147.318 500.893 149.868 500.565 151.904 499.908C153.961 499.251 155.505 498.19 156.533 496.723C157.562 495.235 158.077 493.265 158.077 490.813C158.077 487.617 157.059 485.242 155.023 483.688C152.987 482.112 149.802 481.324 145.468 481.324ZM186.543 487.989C190.834 487.989 194.019 488.952 196.098 490.879C198.178 492.805 199.217 495.88 199.217 500.105V524.566H195.244L194.194 519.247H193.931C192.924 520.56 191.874 521.666 190.779 522.563C189.685 523.439 188.415 524.106 186.97 524.566C185.548 525.004 183.796 525.223 181.717 525.223C179.528 525.223 177.58 524.84 175.872 524.074C174.187 523.308 172.852 522.147 171.867 520.593C170.904 519.039 170.422 517.069 170.422 514.683C170.422 511.093 171.845 508.335 174.69 506.409C177.536 504.483 181.87 503.432 187.693 503.257L193.898 502.994V500.794C193.898 497.686 193.231 495.508 191.895 494.261C190.56 493.013 188.678 492.389 186.248 492.389C184.366 492.389 182.571 492.663 180.863 493.21C179.156 493.757 177.536 494.403 176.004 495.147L174.329 491.01C175.949 490.178 177.81 489.467 179.911 488.876C182.012 488.285 184.223 487.989 186.543 487.989ZM193.833 506.836L188.349 507.066C183.862 507.241 180.699 507.974 178.86 509.266C177.022 510.557 176.102 512.385 176.102 514.749C176.102 516.806 176.726 518.328 177.974 519.313C179.222 520.298 180.874 520.79 182.932 520.79C186.128 520.79 188.743 519.904 190.779 518.131C192.815 516.358 193.833 513.698 193.833 510.152V506.836ZM226.798 487.924C227.52 487.924 228.275 487.967 229.063 488.055C229.851 488.121 230.552 488.219 231.165 488.35L230.475 493.407C229.884 493.254 229.228 493.133 228.505 493.046C227.783 492.958 227.104 492.914 226.469 492.914C225.025 492.914 223.657 493.21 222.365 493.801C221.096 494.37 219.979 495.202 219.016 496.296C218.053 497.369 217.298 498.671 216.751 500.203C216.203 501.714 215.93 503.399 215.93 505.26V524.566H210.447V488.58H214.978L215.569 495.213H215.798C216.543 493.877 217.44 492.663 218.491 491.568C219.542 490.452 220.756 489.565 222.135 488.909C223.536 488.252 225.09 487.924 226.798 487.924ZM251.423 487.989C255.713 487.989 258.898 488.952 260.978 490.879C263.057 492.805 264.097 495.88 264.097 500.105V524.566H260.124L259.073 519.247H258.811C257.804 520.56 256.753 521.666 255.659 522.563C254.564 523.439 253.295 524.106 251.85 524.566C250.427 525.004 248.676 525.223 246.597 525.223C244.408 525.223 242.46 524.84 240.752 524.074C239.067 523.308 237.731 522.147 236.746 520.593C235.783 519.039 235.302 517.069 235.302 514.683C235.302 511.093 236.725 508.335 239.57 506.409C242.416 504.483 246.75 503.432 252.572 503.257L258.778 502.994V500.794C258.778 497.686 258.11 495.508 256.775 494.261C255.44 493.013 253.557 492.389 251.128 492.389C249.245 492.389 247.45 492.663 245.743 493.21C244.036 493.757 242.416 494.403 240.884 495.147L239.209 491.01C240.829 490.178 242.689 489.467 244.791 488.876C246.892 488.285 249.103 487.989 251.423 487.989ZM258.712 506.836L253.229 507.066C248.742 507.241 245.579 507.974 243.74 509.266C241.901 510.557 240.982 512.385 240.982 514.749C240.982 516.806 241.606 518.328 242.854 519.313C244.101 520.298 245.754 520.79 247.811 520.79C251.007 520.79 253.623 519.904 255.659 518.131C257.694 516.358 258.712 513.698 258.712 510.152V506.836ZM280.777 524.566H275.326V488.58H280.777V524.566ZM287.573 473.05V473.707C287.135 474.341 286.534 475.107 285.767 476.005C285.023 476.88 284.191 477.811 283.272 478.796C282.353 479.759 281.422 480.678 280.481 481.554C279.562 482.429 278.708 483.185 277.92 483.819H274.276V483.031C274.976 482.2 275.742 481.204 276.574 480.043C277.406 478.861 278.216 477.658 279.004 476.432C279.792 475.184 280.448 474.057 280.974 473.05H287.573ZM297.785 473.477V486.249C297.785 487.716 297.741 489.138 297.653 490.517C297.588 491.896 297.533 492.969 297.489 493.735H297.785C298.77 492.115 300.192 490.747 302.053 489.631C303.914 488.515 306.289 487.956 309.178 487.956C313.687 487.956 317.277 489.521 319.947 492.652C322.64 495.76 323.986 500.389 323.986 506.54C323.986 510.59 323.373 514.005 322.147 516.785C320.922 519.564 319.192 521.666 316.96 523.089C314.727 524.511 312.089 525.223 309.047 525.223C306.201 525.223 303.859 524.697 302.02 523.647C300.203 522.574 298.802 521.272 297.817 519.74H297.391L296.274 524.566H292.334V473.477H297.785ZM308.291 492.52C305.687 492.52 303.618 493.035 302.086 494.064C300.554 495.07 299.448 496.603 298.77 498.66C298.113 500.696 297.785 503.279 297.785 506.409V506.705C297.785 511.236 298.54 514.705 300.05 517.113C301.56 519.499 304.308 520.692 308.291 520.692C311.64 520.692 314.147 519.466 315.81 517.014C317.496 514.563 318.339 511.061 318.339 506.508C318.339 501.867 317.507 498.376 315.843 496.034C314.202 493.691 311.684 492.52 308.291 492.52ZM346.97 487.989C351.26 487.989 354.445 488.952 356.524 490.879C358.604 492.805 359.644 495.88 359.644 500.105V524.566H355.671L354.62 519.247H354.357C353.35 520.56 352.3 521.666 351.205 522.563C350.111 523.439 348.841 524.106 347.397 524.566C345.974 525.004 344.223 525.223 342.143 525.223C339.954 525.223 338.006 524.84 336.299 524.074C334.613 523.308 333.278 522.147 332.293 520.593C331.33 519.039 330.848 517.069 330.848 514.683C330.848 511.093 332.271 508.335 335.117 506.409C337.962 504.483 342.296 503.432 348.119 503.257L354.325 502.994V500.794C354.325 497.686 353.657 495.508 352.322 494.261C350.986 493.013 349.104 492.389 346.674 492.389C344.792 492.389 342.997 492.663 341.289 493.21C339.582 493.757 337.962 494.403 336.43 495.147L334.756 491.01C336.375 490.178 338.236 489.467 340.337 488.876C342.439 488.285 344.649 487.989 346.97 487.989ZM354.259 506.836L348.776 507.066C344.288 507.241 341.125 507.974 339.287 509.266C337.448 510.557 336.529 512.385 336.529 514.749C336.529 516.806 337.152 518.328 338.4 519.313C339.648 520.298 341.3 520.79 343.358 520.79C346.554 520.79 349.17 519.904 351.205 518.131C353.241 516.358 354.259 513.698 354.259 510.152V506.836Z" fill="#352F2D"/>
<path d="M30.8913 381.117V321.406H43.5523V381.117H30.8913ZM111.554 381.117H95.4626L69.4871 335.946H69.1195C69.2284 337.825 69.3237 339.717 69.4054 341.623C69.4871 343.529 69.5687 345.435 69.6504 347.341C69.7321 349.219 69.8138 351.112 69.8955 353.018V381.117H58.5822V321.406H74.5515L100.486 366.128H100.772C100.718 364.277 100.65 362.439 100.568 360.614C100.486 358.79 100.405 356.966 100.323 355.142C100.268 353.317 100.214 351.493 100.159 349.669V321.406H111.554V381.117ZM161.872 364.535C161.872 368.075 161.014 371.152 159.299 373.766C157.583 376.38 155.079 378.394 151.784 379.81C148.517 381.226 144.541 381.934 139.858 381.934C137.789 381.934 135.76 381.798 133.773 381.526C131.812 381.253 129.92 380.859 128.095 380.341C126.298 379.797 124.583 379.13 122.949 378.34V366.577C125.781 367.83 128.722 368.96 131.771 369.967C134.821 370.975 137.843 371.478 140.838 371.478C142.908 371.478 144.568 371.206 145.821 370.662C147.101 370.117 148.026 369.368 148.598 368.415C149.17 367.462 149.456 366.373 149.456 365.148C149.456 363.65 148.952 362.371 147.945 361.309C146.937 360.247 145.549 359.253 143.779 358.327C142.036 357.402 140.062 356.408 137.857 355.346C136.468 354.692 134.957 353.903 133.323 352.977C131.69 352.024 130.138 350.867 128.667 349.505C127.197 348.144 125.985 346.497 125.032 344.563C124.107 342.603 123.644 340.261 123.644 337.539C123.644 333.972 124.461 330.922 126.094 328.39C127.728 325.858 130.056 323.925 133.078 322.59C136.128 321.229 139.722 320.548 143.861 320.548C146.965 320.548 149.919 320.916 152.723 321.651C155.555 322.359 158.509 323.394 161.586 324.755L157.502 334.598C154.752 333.482 152.288 332.624 150.109 332.025C147.931 331.399 145.712 331.086 143.452 331.086C141.873 331.086 140.525 331.344 139.409 331.862C138.292 332.352 137.448 333.06 136.877 333.985C136.305 334.884 136.019 335.932 136.019 337.13C136.019 338.546 136.427 339.744 137.244 340.724C138.088 341.677 139.341 342.603 141.002 343.502C142.69 344.4 144.786 345.448 147.291 346.646C150.341 348.09 152.941 349.601 155.092 351.18C157.27 352.732 158.945 354.57 160.116 356.694C161.287 358.79 161.872 361.404 161.872 364.535ZM195.73 381.117H183.069V331.943H166.855V321.406H211.944V331.943H195.73V381.117ZM221.134 381.117V321.406H233.795V381.117H221.134ZM271.86 381.117H259.199V331.943H242.984V321.406H288.074V331.943H271.86V381.117ZM345.866 321.406V360.043C345.866 364.154 344.953 367.871 343.129 371.193C341.332 374.487 338.596 377.101 334.92 379.034C331.271 380.967 326.67 381.934 321.115 381.934C313.219 381.934 307.202 379.919 303.063 375.889C298.924 371.86 296.855 366.523 296.855 359.879V321.406H309.475V357.96C309.475 362.888 310.483 366.346 312.498 368.334C314.512 370.321 317.494 371.315 321.442 371.315C324.219 371.315 326.466 370.839 328.181 369.886C329.924 368.933 331.203 367.462 332.02 365.475C332.837 363.487 333.245 360.955 333.245 357.878V321.406H345.866ZM383.522 381.117H370.861V331.943H354.647V321.406H399.736V331.943H383.522V381.117ZM463.123 351.18C463.123 355.781 462.552 359.975 461.408 363.759C460.264 367.517 458.522 370.757 456.18 373.48C453.866 376.203 450.925 378.299 447.358 379.769C443.791 381.212 439.571 381.934 434.697 381.934C429.823 381.934 425.603 381.212 422.036 379.769C418.469 378.299 415.515 376.203 413.173 373.48C410.859 370.757 409.13 367.503 407.986 363.718C406.843 359.934 406.271 355.727 406.271 351.098C406.271 344.917 407.279 339.54 409.293 334.966C411.336 330.364 414.467 326.797 418.687 324.265C422.907 321.733 428.271 320.467 434.779 320.467C441.259 320.467 446.582 321.733 450.748 324.265C454.941 326.797 458.045 330.364 460.06 334.966C462.102 339.567 463.123 344.972 463.123 351.18ZM419.545 351.18C419.545 355.346 420.062 358.94 421.097 361.962C422.159 364.957 423.806 367.272 426.039 368.905C428.271 370.512 431.158 371.315 434.697 371.315C438.291 371.315 441.205 370.512 443.437 368.905C445.67 367.272 447.29 364.957 448.298 361.962C449.332 358.94 449.85 355.346 449.85 351.18C449.85 344.917 448.679 339.989 446.337 336.395C443.996 332.801 440.143 331.004 434.779 331.004C431.212 331.004 428.299 331.821 426.039 333.454C423.806 335.061 422.159 337.375 421.097 340.398C420.062 343.393 419.545 346.987 419.545 351.18ZM84.7212 454.117H72.2643V394.406H106.49V404.78H84.7212V420.177H104.979V430.51H84.7212V454.117ZM152.56 454.117H118.171V394.406H152.56V404.78H130.832V417.89H151.049V428.264H130.832V443.662H152.56V454.117ZM214.599 423.69C214.599 430.415 213.306 436.038 210.719 440.558C208.16 445.05 204.443 448.44 199.569 450.727C194.695 452.987 188.828 454.117 181.966 454.117H165.058V394.406H183.804C190.067 394.406 195.499 395.522 200.1 397.755C204.702 399.961 208.269 403.242 210.801 407.598C213.333 411.927 214.599 417.291 214.599 423.69ZM201.448 424.017C201.448 419.606 200.794 415.984 199.487 413.153C198.208 410.294 196.302 408.183 193.77 406.822C191.265 405.461 188.161 404.78 184.458 404.78H177.719V443.662H183.151C189.331 443.662 193.919 442.014 196.914 438.72C199.937 435.425 201.448 430.524 201.448 424.017ZM261.363 454.117H226.974V394.406H261.363V404.78H239.635V417.89H259.852V428.264H239.635V443.662H261.363V454.117ZM291.26 394.406C296.678 394.406 301.144 395.059 304.656 396.366C308.196 397.673 310.823 399.647 312.538 402.289C314.254 404.93 315.112 408.265 315.112 412.295C315.112 415.018 314.594 417.4 313.56 419.442C312.525 421.484 311.163 423.213 309.475 424.629C307.787 426.045 305.963 427.202 304.002 428.101L321.565 454.117H307.515L293.261 431.205H286.522V454.117H273.861V394.406H291.26ZM290.361 404.78H286.522V420.913H290.606C294.799 420.913 297.794 420.218 299.592 418.83C301.416 417.414 302.328 415.344 302.328 412.622C302.328 409.79 301.348 407.775 299.387 406.577C297.454 405.379 294.445 404.78 290.361 404.78ZM365.633 454.117L361.304 439.904H339.535L335.206 454.117H321.565L342.639 394.161H358.118L379.274 454.117H365.633ZM358.282 429.285L353.952 415.399C353.68 414.473 353.313 413.289 352.85 411.846C352.414 410.375 351.965 408.891 351.502 407.394C351.066 405.869 350.712 404.548 350.44 403.432C350.168 404.548 349.786 405.937 349.296 407.598C348.833 409.232 348.384 410.784 347.949 412.254C347.513 413.724 347.2 414.773 347.009 415.399L342.721 429.285H358.282ZM386.83 454.117V394.406H399.491V443.662H423.711V454.117H386.83Z" fill="#352F2D"/>
<rect x="289.66" y="147.253" width="59.899" height="59.899" rx="5.9899" fill="#2F9E41"/>
<rect x="289.66" y="3.49512" width="59.899" height="59.899" rx="5.9899" fill="#2F9E41"/>
<rect x="217.78" y="219.131" width="59.899" height="59.899" rx="5.9899" fill="#2F9E41"/>
<rect x="217.78" y="147.253" width="59.899" height="59.899" rx="5.9899" fill="#2F9E41"/>
<rect x="217.78" y="75.3735" width="59.899" height="59.899" rx="5.9899" fill="#2F9E41"/>
<rect x="217.78" y="3.49512" width="59.899" height="59.899" rx="5.9899" fill="#2F9E41"/>
<rect x="145.902" y="219.131" width="59.899" height="59.899" rx="5.9899" fill="#2F9E41"/>
<rect x="145.902" y="147.253" width="59.899" height="59.899" rx="5.9899" fill="#2F9E41"/>
<rect x="145.902" y="75.3735" width="59.899" height="59.899" rx="5.9899" fill="#2F9E41"/>
<ellipse cx="175.851" cy="33.4444" rx="32.9444" ry="32.9444" fill="#CD191E"/>
</svg>
