<svg width="2305" height="2305" viewBox="0 0 2305 2305" fill="none" xmlns="http://www.w3.org/2000/svg">
<rect x="5" y="5" width="2295" height="2295" rx="1147.5" stroke="white" stroke-width="10"/>
<path d="M773 460.092L963.001 131H1343.01L1533 460.092L1343.01 789.183H963.001L773 460.092Z" fill="#007ACC"/>
<path d="M1209.56 489.96V510.44H1144.64V695.36H1098.6V510.4H1033.52V490.4C1033.32 483.503 1033.48 476.6 1034 469.72C1034.32 469.36 1074 469.36 1122 469.36H1209.32L1209.56 489.96Z" fill="white"/>
<path d="M1326.92 469C1338.9 471.779 1349.78 478.042 1358.2 487C1362.84 491.826 1366.87 497.199 1370.2 503C1370.2 503.64 1348.6 518.24 1335.44 526.4C1334.96 526.72 1333.04 524.64 1330.92 521.48C1328.52 517.335 1325.1 513.866 1321 511.396C1316.89 508.927 1312.23 507.539 1307.44 507.36C1292.28 506.32 1282.52 514.28 1282.6 527.36C1282.47 530.617 1283.22 533.848 1284.76 536.72C1288.08 543.64 1294.28 547.76 1313.72 556.16C1349.52 571.56 1364.84 581.72 1374.36 596.16C1385 612.16 1387.36 638 1380.16 657.12C1372.16 677.92 1352.56 692.04 1324.84 696.72C1312.18 698.17 1299.39 698.036 1286.76 696.32C1267.41 693.13 1249.58 683.838 1235.88 669.8C1231.28 664.72 1222.32 651.48 1222.88 650.52C1224.34 649.436 1225.88 648.46 1227.48 647.6L1246 637.36L1260.36 629.04L1263.36 633.48C1268.42 640.722 1274.87 646.894 1282.32 651.64C1298.32 660.04 1320.16 658.88 1330.96 649.16C1334.59 645.598 1336.85 640.878 1337.35 635.82C1337.86 630.762 1336.57 625.688 1333.72 621.48C1329.72 615.92 1321.72 611.24 1299.36 601.48C1273.56 590.36 1262.44 583.48 1252.28 572.52C1245.94 565.288 1241.25 556.755 1238.56 547.52C1236.55 536.97 1236.25 526.165 1237.68 515.52C1243 490.6 1261.68 473.2 1288.96 468.04C1301.59 466.477 1314.39 466.827 1326.92 469.08V469Z" fill="white"/>
<path d="M773 1153.09L963.001 824H1343.01L1533 1153.09L1343.01 1482.18H963.001L773 1153.09Z" fill="#F0DB4F"/>
<path d="M1381.15 1307.15C1377.48 1284.31 1362.58 1265.12 1318.46 1247.23C1303.13 1240.18 1286.04 1235.14 1280.95 1223.52C1279.14 1216.76 1278.9 1212.95 1280.05 1208.86C1283.33 1195.58 1299.18 1191.44 1311.75 1195.25C1319.84 1197.96 1327.5 1204.2 1332.12 1214.15C1353.73 1200.15 1353.68 1200.25 1368.77 1190.63C1363.25 1182.07 1360.3 1178.11 1356.68 1174.45C1343.69 1159.93 1325.98 1152.46 1297.66 1153.03L1282.91 1154.94C1268.77 1158.51 1255.3 1165.93 1247.4 1175.88C1223.7 1202.77 1230.46 1249.85 1259.3 1269.22C1287.72 1290.55 1329.46 1295.4 1334.79 1315.34C1339.98 1339.76 1316.85 1347.66 1293.86 1344.85C1276.91 1341.33 1267.49 1332.72 1257.3 1317.06C1238.55 1327.91 1238.55 1327.91 1219.27 1339C1223.84 1348.99 1228.64 1353.52 1236.31 1362.18C1272.58 1398.97 1363.35 1397.16 1379.63 1341.47C1380.29 1339.56 1384.67 1326.81 1381.15 1307.15ZM1193.61 1155.98H1146.77L1146.58 1277.07C1146.58 1302.82 1147.91 1326.43 1143.72 1333.66C1136.87 1347.89 1119.12 1346.13 1111.02 1343.37C1102.79 1339.32 1098.6 1333.57 1093.75 1325.43C1092.42 1323.09 1091.42 1321.29 1091.08 1321.15L1053 1344.47C1059.33 1357.46 1068.66 1368.74 1080.61 1376.07C1098.46 1386.78 1122.44 1390.07 1147.53 1384.31C1163.86 1379.55 1177.95 1369.7 1185.32 1354.7C1195.99 1335.04 1193.7 1311.25 1193.6 1284.93C1193.84 1241.99 1193.61 1199.05 1193.61 1155.98Z" fill="#323330"/>
<path d="M1373 807.092L1563 478H1943.01L2133 807.092L1943.01 1136.18H1563L1373 807.092Z" fill="white"/>
<path fill-rule="evenodd" clip-rule="evenodd" d="M1753.01 551C1607.78 551 1490 668.744 1490 814.002C1490 930.201 1565.36 1028.79 1669.86 1063.56C1683 1065.99 1687.83 1057.85 1687.83 1050.91C1687.83 1044.64 1687.58 1023.92 1687.47 1001.95C1614.3 1017.85 1598.86 970.914 1598.86 970.914C1586.9 940.512 1569.66 932.426 1569.66 932.426C1545.8 916.106 1571.45 916.44 1571.45 916.44C1597.87 918.295 1611.78 943.547 1611.78 943.547C1635.23 983.753 1673.3 972.125 1688.31 965.406C1690.67 948.406 1697.49 936.797 1705.01 930.232C1646.59 923.586 1585.18 901.029 1585.18 800.254C1585.18 771.54 1595.46 748.08 1612.28 729.659C1609.55 723.032 1600.55 696.277 1614.83 660.052C1614.83 660.052 1636.91 652.993 1687.16 687.023C1708.14 681.194 1730.65 678.27 1752.99 678.171C1775.35 678.276 1797.86 681.2 1818.88 687.023C1869.08 652.999 1891.13 660.058 1891.13 660.058C1905.45 696.283 1896.45 723.032 1893.72 729.665C1910.58 748.074 1920.78 771.54 1920.78 800.26C1920.78 901.27 1859.25 923.512 1800.69 930.015C1810.12 938.175 1818.53 954.186 1818.53 978.727C1818.53 1013.91 1818.23 1042.23 1818.23 1050.89C1818.23 1057.88 1822.97 1066.09 1836.29 1063.5C1940.74 1028.69 2016 930.139 2016 813.978C2016.01 668.75 1898.26 551 1753.01 551Z" fill="#181616"/>
<path d="M1373 1500.09L1563 1171H1943.01L2133 1500.09L1943.01 1829.18H1563L1373 1500.09Z" fill="#2C8EBB"/>
<path d="M1941.91 1630.82C1924.94 1634.92 1917.04 1638.11 1894.25 1652.9C1869.65 1668.34 1843.16 1680.56 1815.45 1689.26C1810.09 1693.66 1803.77 1696.73 1797.01 1698.23C1777.71 1702.94 1711.52 1706.48 1706.31 1706.48H1705.09C1684.83 1706.48 1673.34 1700.2 1667.16 1693.62C1649.94 1702.23 1627.65 1698.68 1611.45 1690.12C1607.57 1688.22 1604.18 1685.45 1601.54 1682.02C1598.91 1678.6 1597.1 1674.61 1596.25 1670.37C1595.65 1666.92 1595.65 1663.39 1596.25 1659.94C1594.76 1658.38 1593.42 1656.68 1592.25 1654.87C1583.05 1639.56 1579.04 1621.7 1580.81 1603.92C1582.28 1585.03 1595.34 1568.17 1603.85 1559.2C1603.14 1538.96 1606.7 1518.79 1614.28 1500C1622.43 1482.53 1634.21 1466.99 1648.82 1454.42C1640.47 1440.34 1631.96 1418.66 1640.21 1396.58C1646.14 1380.83 1651 1372.07 1661.69 1368.32C1666.35 1366.98 1670.68 1364.66 1674.4 1361.54C1689.98 1344.61 1711.5 1334.34 1734.46 1332.87C1735.43 1330.44 1736.54 1327.81 1737.76 1325.48C1745.86 1308.26 1754.47 1298.58 1764.55 1295.09C1768.2 1293.72 1772.12 1293.24 1775.99 1293.68C1779.87 1294.12 1783.58 1295.47 1786.83 1297.62C1790.12 1299.8 1794.33 1302.69 1806.58 1328.01C1811.22 1326.35 1816.27 1326.17 1821.02 1327.5C1823.61 1328.21 1826.02 1329.45 1828.11 1331.14C1830.19 1332.83 1831.9 1334.94 1833.12 1337.33C1845.63 1361.33 1847.3 1404.13 1841.83 1431.63C1836.98 1455.98 1826.89 1478.98 1812.25 1499.04C1825.34 1512.65 1835.31 1528.95 1841.48 1546.8C1847.5 1563.68 1849.93 1581.64 1848.62 1599.52C1854.06 1596.91 1859.34 1593.97 1864.42 1590.71C1879.92 1581.13 1903.31 1566.7 1931.22 1566.35C1939.69 1565.78 1948.05 1568.44 1954.63 1573.8C1961.21 1579.16 1965.51 1586.81 1966.67 1595.21C1967.73 1603.17 1965.78 1611.23 1961.19 1617.82C1956.61 1624.4 1949.73 1629.04 1941.91 1630.82Z" fill="white"/>
<path d="M1931.47 1584.63C1909.49 1584.88 1890.25 1596.23 1873.99 1606.36C1843.6 1625.14 1828.41 1623.93 1828.41 1623.93L1827.9 1623.07C1825.83 1619.67 1837.63 1589.24 1824.41 1552.98C1810.13 1513.32 1787.44 1503.75 1789.26 1500.71C1797.01 1487.59 1816.41 1466.78 1824.16 1427.98C1828.77 1404.48 1827.55 1365.79 1817.12 1345.53C1815.19 1341.78 1797.97 1351.81 1797.97 1351.81C1797.97 1351.81 1781.87 1315.91 1777.36 1313.02C1762.83 1303.7 1746.97 1351.56 1746.97 1351.56C1736 1350.48 1724.92 1351.98 1714.63 1355.94C1704.33 1359.9 1695.1 1366.2 1687.67 1374.35C1682.16 1379.66 1675.48 1383.59 1668.17 1385.85C1666.09 1386.56 1663.56 1386.45 1657.28 1403.42C1647.66 1429.1 1673.69 1458.17 1673.69 1458.17C1673.69 1458.17 1642.64 1480.1 1631.15 1507.39C1623.47 1526.11 1620.43 1546.4 1622.28 1566.55C1622.28 1566.55 1600.2 1585.69 1598.79 1605.44C1597.47 1619.28 1600.61 1633.17 1607.75 1645.1C1608.31 1646.29 1609.1 1647.36 1610.07 1648.23C1611.05 1649.11 1612.19 1649.79 1613.44 1650.22C1614.68 1650.65 1615.99 1650.82 1617.3 1650.74C1618.62 1650.65 1619.9 1650.3 1621.07 1649.71C1621.07 1649.71 1606.38 1666.83 1620.11 1674.07C1632.62 1680.6 1653.68 1684.2 1664.83 1673.11C1672.93 1665 1674.55 1646.92 1677.54 1639.53C1678.25 1637.81 1680.68 1642.41 1683.01 1644.59C1685.16 1646.47 1687.46 1648.17 1689.9 1649.66C1689.9 1649.66 1670.14 1658.17 1678.25 1677.56C1680.93 1683.99 1690.5 1688.1 1706.15 1688C1711.98 1688 1775.84 1684.35 1792.86 1680.25C1798 1679.43 1802.69 1676.81 1806.08 1672.85C1833.71 1664.63 1860.1 1652.71 1884.53 1637.4C1908.53 1621.75 1918.36 1617.5 1937.75 1612.89C1953.76 1609.09 1952.69 1584.27 1931.47 1584.63Z" fill="#2C8EBB"/>
<path d="M773 1846.09L963.001 1517H1343.01L1533 1846.09L1343.01 2175.18H963.001L773 1846.09Z" fill="#61DAFB"/>
<path d="M1152.5 1898C1180.94 1898 1204 1874.72 1204 1846C1204 1817.28 1180.94 1794 1152.5 1794C1124.06 1794 1101 1817.28 1101 1846C1101 1874.72 1124.06 1898 1152.5 1898Z" fill="white"/>
<path d="M1349.29 1760.58C1339.29 1756.94 1328.84 1753.31 1317.93 1750.13C1320.65 1739.22 1322.93 1728.31 1324.75 1717.86C1334.29 1657.89 1323.84 1615.63 1294.75 1599.27C1286.12 1594.27 1276.57 1592 1265.66 1592C1233.85 1592 1193.4 1615.63 1152.5 1655.16C1111.6 1615.63 1071.15 1592 1039.34 1592C1028.43 1592 1018.88 1594.27 1010.25 1599.27C981.164 1616.08 970.711 1658.34 980.255 1717.86C982.073 1728.31 984.345 1739.22 987.072 1750.13C976.165 1753.31 965.712 1756.49 955.713 1760.58C898.904 1782.39 868 1812.38 868 1846C868 1879.62 899.359 1909.61 955.713 1931.42C965.712 1935.06 976.165 1938.69 987.072 1941.87C984.345 1952.78 982.073 1963.69 980.255 1974.14C970.711 2034.11 981.164 2076.37 1010.25 2092.73C1018.88 2097.73 1028.43 2100 1039.34 2100C1071.6 2100 1112.05 2076.37 1152.5 2036.84C1193.4 2076.37 1233.85 2100 1265.66 2100C1276.57 2100 1286.12 2097.73 1294.75 2092.73C1323.84 2075.92 1334.29 2033.66 1324.75 1974.14C1322.93 1963.69 1320.65 1952.78 1317.93 1941.87C1328.84 1938.69 1339.29 1935.51 1349.29 1931.42C1406.1 1909.61 1437 1879.62 1437 1846C1437 1812.38 1406.1 1782.39 1349.29 1760.58ZM1282.02 1621.99C1300.66 1632.89 1307.02 1666.52 1299.29 1714.23C1297.93 1723.77 1295.66 1733.77 1292.93 1744.22C1269.3 1738.77 1244.3 1735.13 1217.94 1732.86C1202.49 1711.05 1186.59 1691.51 1170.68 1673.79C1204.31 1640.62 1238.4 1617.9 1266.12 1617.9C1272.03 1617.9 1277.48 1619.26 1282.02 1621.99ZM1231.12 1891.44C1222.94 1905.98 1213.4 1920.52 1203.4 1935.06C1186.59 1936.42 1169.77 1936.88 1152.5 1936.88C1134.78 1936.88 1117.96 1936.42 1101.6 1935.06C1091.6 1920.52 1082.51 1905.98 1074.33 1891.44C1065.7 1876.44 1057.52 1860.99 1050.24 1846C1057.52 1831.01 1065.7 1815.56 1074.33 1800.56C1082.51 1786.02 1092.06 1771.48 1102.05 1756.94C1118.87 1755.58 1135.68 1755.12 1152.95 1755.12C1170.68 1755.12 1187.49 1755.58 1203.86 1756.94C1213.85 1771.48 1222.94 1786.02 1231.12 1800.56C1239.76 1815.56 1247.94 1831.01 1255.21 1846C1247.48 1860.99 1239.76 1875.99 1231.12 1891.44ZM1268.85 1876.44C1275.66 1892.35 1281.12 1907.8 1286.12 1923.25C1270.66 1926.88 1254.3 1929.61 1237.03 1931.88C1242.49 1923.25 1248.39 1914.16 1253.39 1904.62C1258.85 1895.07 1263.85 1885.53 1268.85 1876.44ZM1152.5 1999.58C1141.59 1987.77 1131.14 1975.04 1121.14 1961.87C1131.59 1962.32 1142.05 1962.78 1152.5 1962.78C1162.95 1962.78 1173.41 1962.32 1183.86 1961.87C1173.86 1975.04 1163.41 1987.77 1152.5 1999.58ZM1067.97 1931.42C1050.7 1929.15 1034.34 1926.43 1018.88 1922.79C1023.88 1907.8 1029.34 1891.89 1036.15 1875.99C1041.15 1885.08 1046.15 1894.62 1051.61 1903.71C1057.06 1913.7 1062.51 1922.34 1067.97 1931.42ZM1036.15 1815.56C1029.34 1799.65 1023.88 1784.2 1018.88 1768.75C1034.34 1765.12 1050.7 1762.39 1067.97 1760.12C1062.51 1768.75 1056.61 1777.84 1051.61 1787.38C1046.15 1796.93 1041.15 1806.47 1036.15 1815.56ZM1152.5 1692.42C1163.41 1704.23 1173.86 1716.96 1183.86 1730.13C1173.41 1729.68 1162.95 1729.22 1152.5 1729.22C1142.05 1729.22 1131.59 1729.68 1121.14 1730.13C1131.14 1716.96 1141.59 1704.23 1152.5 1692.42ZM1253.39 1787.84L1237.03 1760.58C1254.3 1762.85 1270.66 1765.57 1286.12 1769.21C1281.12 1784.2 1275.66 1800.11 1268.85 1816.01C1263.85 1806.47 1258.85 1796.93 1253.39 1787.84ZM1005.71 1714.23C997.979 1666.52 1004.34 1632.89 1022.98 1621.99C1027.52 1619.26 1032.97 1617.9 1038.88 1617.9C1066.15 1617.9 1100.24 1640.16 1134.32 1673.79C1118.41 1691.06 1102.51 1711.05 1087.06 1732.86C1060.7 1735.13 1035.7 1739.22 1012.07 1744.22C1009.34 1733.77 1007.52 1723.77 1005.71 1714.23ZM893.45 1846C893.45 1824.64 919.355 1801.92 964.803 1785.11C973.892 1781.48 983.891 1778.3 993.889 1775.57C1001.16 1798.29 1010.25 1822.37 1021.16 1846.45C1010.25 1870.54 1000.71 1894.16 993.889 1916.88C931.172 1898.71 893.45 1871.45 893.45 1846ZM1022.98 2070.01C1004.34 2059.11 997.979 2025.48 1005.71 1977.77C1007.07 1968.23 1009.34 1958.23 1012.07 1947.78C1035.7 1953.23 1060.7 1956.87 1087.06 1959.14C1102.51 1980.95 1118.41 2000.49 1134.32 2018.21C1100.69 2051.38 1066.6 2074.1 1038.88 2074.1C1032.97 2074.1 1027.52 2072.74 1022.98 2070.01ZM1299.29 1977.77C1307.02 2025.48 1300.66 2059.11 1282.02 2070.01C1277.48 2072.74 1272.03 2074.1 1266.12 2074.1C1238.85 2074.1 1204.76 2051.84 1170.68 2018.21C1186.59 2000.94 1202.49 1980.95 1217.94 1959.14C1244.3 1956.87 1269.3 1952.78 1292.93 1947.78C1295.66 1958.23 1297.48 1968.23 1299.29 1977.77ZM1340.2 1906.89C1331.11 1910.52 1321.11 1913.7 1311.11 1916.43C1303.84 1893.71 1294.75 1869.63 1283.84 1845.55C1294.75 1821.46 1304.29 1797.84 1311.11 1775.12C1373.83 1793.29 1411.55 1820.55 1411.55 1846C1411.55 1867.36 1385.19 1890.08 1340.2 1906.89Z" fill="white"/>
<path d="M173 1499.09L363.001 1170H743.011L933 1499.09L743.011 1828.18H363.001L173 1499.09Z" fill="white"/>
<path d="M553 1243C411.8 1243 297 1357.8 297 1499C297 1640.2 411.8 1755 553 1755C597.8 1755 639.8 1743.4 676.2 1723.4L490.6 1464.2V1610.6H463.4V1410.2H490.6L692.6 1713.4C762.6 1667.8 809 1589 809 1499C809 1357.8 694.2 1243 553 1243ZM641.4 1581.4L611.4 1536.2V1410.2H641.4V1581.4Z" fill="black"/>
<path d="M173 806.092L363.001 477H743.011L933 806.092L743.011 1135.18H363.001L173 806.092Z" fill="#83CD29"/>
<path d="M770.345 658.101L575.824 545.237C563.556 538.254 547.583 538.254 535.218 545.237L338.619 658.101C325.959 665.379 317 679.056 317 693.686V919.115C317 933.745 326.193 947.427 338.853 954.745L390.795 984.225C415.622 996.443 424.395 996.443 435.693 996.443C472.451 996.443 493.449 974.232 493.449 935.491V712.936C493.449 709.793 491.812 705.116 488.724 705.116H463.92C460.779 705.116 453.748 709.793 453.748 712.931V935.486C453.748 952.66 438.203 969.749 409.15 955.234L355.479 924.321C353.609 923.307 352.29 921.267 352.29 919.115V693.686C352.29 691.562 354.738 689.428 356.622 688.339L552.585 575.669C554.416 574.633 557.107 574.633 558.933 575.669L752.506 688.313C754.359 689.428 753.706 691.495 753.706 693.686V919.115C753.706 921.267 754.513 923.36 752.682 924.396L558.21 1037.13C556.542 1038.13 554.473 1038.13 552.647 1037.13L502.769 1007.38C501.265 1006.51 499.479 1006.2 498.036 1007C484.159 1014.86 481.6 1015.91 468.583 1020.42C465.38 1021.53 460.656 1023.47 470.391 1028.92L535.668 1067.51C541.9 1071.1 548.97 1073 556.167 1073C563.41 1073 570.504 1071.12 576.754 1067.51L770.341 954.745C783.001 947.375 789 933.745 789 919.115V693.686C789 679.056 783.001 665.414 770.345 658.101ZM616.566 883.394C564.84 883.394 553.446 869.134 549.647 843.432C549.206 840.663 546.855 837.353 544.036 837.353H518.756C515.628 837.353 513.114 841.144 513.114 844.256C513.114 877.165 531.019 917.039 616.57 917.039C678.499 917.039 714.005 892.994 714.005 850.44C714.005 808.248 685.478 797.175 625.419 789.232C564.712 781.214 558.545 777.163 558.545 762.952C558.545 751.236 563.768 735.61 608.718 735.61C648.882 735.61 663.686 744.223 669.778 771.274C670.299 773.818 672.623 775.642 675.248 775.642H700.63C702.192 775.642 703.683 775.012 704.777 773.897C705.835 772.698 706.396 771.195 706.254 769.582C702.324 722.999 671.353 701.29 608.714 701.29C552.996 701.29 519.757 724.802 519.757 764.213C519.757 806.961 552.828 818.774 606.314 824.059C670.299 830.327 675.274 839.672 675.274 852.247C675.274 874.089 657.727 883.394 616.566 883.394Z" fill="white"/>
</svg>
