<svg width="2305" height="2305" viewBox="0 0 2305 2305" fill="none" xmlns="http://www.w3.org/2000/svg">
<rect x="5" y="5" width="2295" height="2295" rx="1147.5" stroke="white" stroke-width="10"/>
<path d="M773 460.092L963.001 131H1343.01L1533 460.092L1343.01 789.183H963.001L773 460.092Z" fill="#007ACC"/>
<path d="M1209.56 489.96V510.44H1144.64V695.36H1098.6V510.4H1033.52V490.4C1033.32 483.503 1033.48 476.6 1034 469.72C1034.32 469.36 1074 469.36 1122 469.36H1209.32L1209.56 489.96Z" fill="white"/>
<path d="M1326.92 469C1338.9 471.779 1349.78 478.042 1358.2 487C1362.84 491.826 1366.87 497.199 1370.2 503C1370.2 503.64 1348.6 518.24 1335.44 526.4C1334.96 526.72 1333.04 524.64 1330.92 521.48C1328.52 517.335 1325.1 513.866 1321 511.396C1316.89 508.927 1312.23 507.539 1307.44 507.36C1292.28 506.32 1282.52 514.28 1282.6 527.36C1282.47 530.617 1283.22 533.848 1284.76 536.72C1288.08 543.64 1294.28 547.76 1313.72 556.16C1349.52 571.56 1364.84 581.72 1374.36 596.16C1385 612.16 1387.36 638 1380.16 657.12C1372.16 677.92 1352.56 692.04 1324.84 696.72C1312.18 698.17 1299.39 698.036 1286.76 696.32C1267.41 693.13 1249.58 683.838 1235.88 669.8C1231.28 664.72 1222.32 651.48 1222.88 650.52C1224.34 649.436 1225.88 648.46 1227.48 647.6L1246 637.36L1260.36 629.04L1263.36 633.48C1268.42 640.722 1274.87 646.894 1282.32 651.64C1298.32 660.04 1320.16 658.88 1330.96 649.16C1334.59 645.598 1336.85 640.878 1337.35 635.82C1337.86 630.762 1336.57 625.688 1333.72 621.48C1329.72 615.92 1321.72 611.24 1299.36 601.48C1273.56 590.36 1262.44 583.48 1252.28 572.52C1245.94 565.288 1241.25 556.755 1238.56 547.52C1236.55 536.97 1236.25 526.165 1237.68 515.52C1243 490.6 1261.68 473.2 1288.96 468.04C1301.59 466.477 1314.39 466.827 1326.92 469.08V469Z" fill="white"/>
<path d="M1373 807.092L1563 478H1943.01L2133 807.092L1943.01 1136.18H1563L1373 807.092Z" fill="#E0234E"/>
<path fill-rule="evenodd" clip-rule="evenodd" d="M1795.33 573C1791.92 573 1788.76 573.73 1785.84 574.702C1792.05 578.837 1795.45 584.309 1797.15 590.51C1797.28 591.361 1797.52 591.969 1797.64 592.82C1797.76 593.55 1797.88 594.279 1797.88 595.009C1798.37 605.71 1795.09 607.047 1792.78 613.37C1789.25 621.517 1790.22 630.272 1794.48 637.325C1794.84 638.176 1795.33 639.149 1795.94 640C1791.32 609.236 1816.98 604.615 1821.73 595.009C1822.09 586.619 1815.16 581.025 1809.68 577.134C1804.45 573.973 1799.71 573 1795.33 573ZM1834.01 579.931C1833.52 582.728 1833.89 581.998 1833.77 583.457C1833.65 584.43 1833.65 585.646 1833.52 586.619C1833.28 587.592 1833.04 588.564 1832.67 589.537C1832.43 590.51 1832.06 591.483 1831.7 592.455C1831.21 593.428 1830.85 594.279 1830.36 595.252C1830 595.739 1829.75 596.225 1829.39 596.711C1829.15 597.076 1828.9 597.441 1828.66 597.806C1828.05 598.657 1827.44 599.508 1826.83 600.238C1826.1 600.967 1825.5 601.818 1824.64 602.426V602.548C1823.92 603.156 1823.19 603.886 1822.33 604.494C1819.78 606.439 1816.86 607.898 1814.18 609.722C1813.33 610.33 1812.48 610.817 1811.75 611.546C1810.9 612.154 1810.17 612.762 1809.44 613.492C1808.59 614.221 1807.98 614.951 1807.25 615.802C1806.64 616.532 1805.91 617.383 1805.43 618.234C1804.82 619.085 1804.21 619.937 1803.72 620.788C1803.24 621.76 1802.87 622.612 1802.39 623.584C1802.02 624.557 1801.66 625.408 1801.41 626.381C1801.05 627.476 1800.8 628.448 1800.56 629.421C1800.44 629.908 1800.44 630.515 1800.32 631.002C1800.2 631.488 1800.2 631.975 1800.07 632.461C1800.07 633.434 1799.95 634.528 1799.95 635.501C1799.95 636.231 1799.95 636.96 1800.07 637.69C1800.07 638.662 1800.2 639.635 1800.44 640.73C1800.56 641.702 1800.8 642.675 1801.05 643.648C1801.41 644.621 1801.66 645.593 1802.02 646.566C1802.26 647.174 1802.63 647.782 1802.87 648.269L1774.9 637.446C1770.15 636.109 1765.53 634.893 1760.79 633.799C1758.23 633.191 1755.68 632.583 1753.12 631.975C1745.82 630.515 1738.41 629.421 1730.99 628.692C1730.74 628.692 1730.62 628.57 1730.38 628.57C1723.08 627.84 1715.9 627.475 1708.6 627.475C1703.25 627.475 1697.9 627.718 1692.67 628.083C1685.25 628.57 1677.83 629.543 1670.41 630.759C1668.59 631.002 1666.76 631.367 1664.94 631.731C1661.17 632.461 1657.52 633.312 1653.99 634.163C1652.16 634.65 1650.34 635.136 1648.52 635.622C1646.69 636.352 1644.99 637.203 1643.29 637.933C1641.95 638.541 1640.61 639.149 1639.27 639.757C1639.03 639.878 1638.78 639.878 1638.66 640C1637.45 640.608 1636.35 641.094 1635.26 641.702C1634.89 641.824 1634.65 641.945 1634.41 642.067C1633.07 642.675 1631.73 643.404 1630.64 644.012C1629.78 644.377 1628.93 644.864 1628.2 645.228C1627.84 645.471 1627.35 645.715 1627.11 645.836C1626.01 646.444 1624.92 647.052 1623.95 647.66C1622.85 648.268 1621.88 648.876 1621.03 649.484C1620.17 650.092 1619.32 650.579 1618.59 651.187C1618.47 651.308 1618.35 651.308 1618.23 651.43C1617.5 651.916 1616.65 652.524 1615.92 653.132C1615.92 653.132 1615.8 653.254 1615.67 653.375C1615.07 653.862 1614.46 654.348 1613.85 654.834C1613.61 654.956 1613.36 655.199 1613.12 655.321C1612.51 655.807 1611.9 656.415 1611.3 656.901C1611.17 657.144 1610.93 657.266 1610.81 657.388C1610.08 658.118 1609.35 658.726 1608.62 659.455C1608.5 659.455 1608.5 659.577 1608.38 659.698C1607.65 660.306 1606.92 661.036 1606.19 661.765C1606.06 661.887 1606.06 662.008 1605.94 662.008C1605.34 662.616 1604.73 663.224 1604.12 663.954C1603.88 664.197 1603.51 664.44 1603.27 664.683C1602.66 665.413 1601.93 666.143 1601.2 666.872C1601.08 667.115 1600.83 667.237 1600.71 667.48C1599.74 668.453 1598.89 669.426 1597.92 670.399C1597.79 670.52 1597.67 670.642 1597.55 670.763C1595.6 672.83 1593.54 674.898 1591.35 676.722C1589.16 678.667 1586.85 680.491 1584.54 682.072C1582.1 683.774 1579.79 685.233 1577.24 686.692C1574.8 688.03 1572.25 689.246 1569.57 690.34C1567.02 691.435 1564.34 692.408 1561.67 693.259C1556.56 694.353 1551.33 696.42 1546.83 696.785C1545.85 696.785 1544.76 697.028 1543.79 697.15C1542.69 697.393 1541.72 697.636 1540.75 697.879C1539.77 698.244 1538.8 698.609 1537.83 698.974C1536.85 699.339 1535.88 699.825 1534.91 700.311C1534.06 700.919 1533.08 701.406 1532.23 702.014C1531.38 702.622 1530.53 703.351 1529.8 704.081C1528.95 704.689 1528.1 705.54 1527.37 706.27C1526.64 707.121 1525.91 707.85 1525.3 708.701C1524.69 709.674 1523.96 710.525 1523.47 711.498C1522.87 712.349 1522.26 713.322 1521.77 714.295C1521.28 715.389 1520.8 716.362 1520.43 717.456C1520.07 718.429 1519.7 719.524 1519.34 720.618C1519.09 721.591 1518.85 722.564 1518.73 723.536C1518.73 723.658 1518.61 723.779 1518.61 723.901C1518.36 724.996 1518.36 726.455 1518.24 727.184C1518.12 728.035 1518 728.765 1518 729.616C1518 730.103 1518 730.711 1518.12 731.197C1518.24 732.048 1518.36 732.778 1518.61 733.507C1518.85 734.237 1519.1 734.966 1519.46 735.696V735.818C1519.82 736.547 1520.31 737.277 1520.8 738.007C1521.28 738.736 1521.77 739.466 1522.38 740.195C1522.99 740.803 1523.72 741.533 1524.45 742.141C1525.18 742.87 1525.91 743.478 1526.76 744.086C1529.68 746.64 1530.41 747.491 1534.18 749.437C1534.79 749.801 1535.39 750.045 1536.12 750.409C1536.25 750.409 1536.37 750.531 1536.49 750.531C1536.49 750.774 1536.49 750.896 1536.61 751.139C1536.73 752.112 1536.98 753.085 1537.22 754.058C1537.46 755.152 1537.83 756.125 1538.19 756.976C1538.56 757.705 1538.8 758.435 1539.17 759.165C1539.29 759.408 1539.41 759.651 1539.53 759.773C1540.02 760.745 1540.5 761.597 1540.99 762.448C1541.6 763.299 1542.21 764.15 1542.81 765.001C1543.42 765.731 1544.15 766.582 1544.88 767.312C1545.61 768.041 1546.34 768.649 1547.19 769.379C1547.19 769.379 1547.32 769.501 1547.44 769.501C1548.17 770.109 1548.9 770.717 1549.63 771.203C1550.48 771.811 1551.33 772.297 1552.3 772.784C1553.15 773.27 1554.13 773.757 1555.1 774.121C1555.83 774.486 1556.68 774.729 1557.53 774.973C1557.65 775.094 1557.78 775.094 1558.02 775.216C1558.51 775.338 1559.11 775.459 1559.6 775.58C1559.24 782.147 1559.11 788.348 1560.09 790.537C1561.18 792.969 1566.53 785.551 1571.89 777.04C1571.16 785.43 1570.67 795.279 1571.89 798.197C1573.22 801.237 1580.52 791.753 1586.85 781.295C1673.09 761.354 1751.79 820.936 1760.06 905.081C1758.48 891.948 1742.3 884.653 1734.88 886.477C1731.23 895.475 1725.03 907.026 1715.05 914.201C1715.9 906.175 1715.54 897.907 1713.84 889.881C1711.16 901.068 1705.93 911.526 1698.75 920.524C1687.2 921.375 1675.64 915.781 1669.56 907.391C1669.07 907.026 1668.95 906.297 1668.59 905.811C1668.22 904.959 1667.86 904.108 1667.61 903.257C1667.25 902.406 1667.01 901.555 1666.88 900.703C1666.76 899.852 1666.76 899.001 1666.76 898.028C1666.76 897.42 1666.76 896.812 1666.76 896.204C1666.88 895.353 1667.13 894.502 1667.37 893.651C1667.61 892.8 1667.86 891.948 1668.22 891.097C1668.71 890.246 1669.07 889.395 1669.68 888.544C1671.75 882.707 1671.75 877.965 1667.98 875.168C1667.25 874.682 1666.52 874.317 1665.67 873.952C1665.18 873.83 1664.57 873.587 1664.09 873.466C1663.72 873.344 1663.48 873.223 1663.11 873.101C1662.26 872.858 1661.41 872.614 1660.56 872.493C1659.71 872.25 1658.86 872.128 1658 872.128C1657.15 872.006 1656.18 871.885 1655.33 871.885C1654.72 871.885 1654.11 872.007 1653.5 872.007C1652.53 872.007 1651.68 872.129 1650.83 872.372C1649.98 872.493 1649.12 872.615 1648.27 872.858C1647.42 873.101 1646.57 873.345 1645.72 873.709C1644.87 874.074 1644.14 874.439 1643.29 874.804C1642.56 875.169 1641.83 875.655 1640.98 876.02C1612.63 894.502 1629.54 937.791 1648.88 950.315C1641.58 951.653 1634.16 953.234 1632.1 954.814C1631.97 954.936 1631.85 955.057 1631.85 955.057C1637.08 958.219 1642.56 960.894 1648.27 963.204C1656.06 965.758 1664.33 968.068 1667.98 969.041V969.163C1678.07 971.23 1688.29 971.96 1698.63 971.352C1752.52 967.582 1796.67 926.604 1804.7 872.615C1804.94 873.709 1805.18 874.682 1805.43 875.776C1805.79 877.965 1806.28 880.275 1806.52 882.586V882.708C1806.77 883.802 1806.89 884.896 1807.01 885.869V886.356C1807.13 887.45 1807.25 888.545 1807.25 889.517C1807.37 890.855 1807.5 892.192 1807.5 893.53V895.476C1807.5 896.084 1807.62 896.813 1807.62 897.421C1807.62 898.151 1807.5 898.88 1807.5 899.61V901.312C1807.5 902.163 1807.37 902.893 1807.37 903.744C1807.37 904.231 1807.37 904.717 1807.25 905.325C1807.25 906.176 1807.13 907.027 1807.13 908C1807.01 908.365 1807.01 908.73 1807.01 909.094C1806.89 910.067 1806.76 910.918 1806.64 911.891C1806.64 912.256 1806.64 912.621 1806.52 912.986C1806.4 914.202 1806.16 915.296 1806.03 916.512V916.634V916.756C1805.79 917.85 1805.55 919.066 1805.3 920.16V920.525C1805.06 921.619 1804.82 922.714 1804.57 923.808C1804.57 923.93 1804.45 924.173 1804.45 924.295C1804.21 925.389 1803.97 926.483 1803.6 927.578V927.943C1803.24 929.159 1802.87 930.253 1802.63 931.347C1802.51 931.469 1802.51 931.59 1802.51 931.59C1802.14 932.806 1801.78 934.022 1801.41 935.238C1800.93 936.454 1800.56 937.549 1800.07 938.765C1799.59 939.981 1799.22 941.196 1798.74 942.291C1798.25 943.507 1797.76 944.601 1797.28 945.817H1797.15C1796.67 946.912 1796.18 948.128 1795.57 949.222C1795.45 949.587 1795.33 949.83 1795.21 950.073C1795.09 950.195 1795.09 950.316 1794.97 950.438C1787.06 966.367 1775.38 980.351 1760.79 991.294C1759.81 991.902 1758.84 992.632 1757.87 993.361C1757.62 993.605 1757.26 993.726 1757.01 993.969C1756.16 994.577 1755.31 995.185 1754.34 995.793L1754.7 996.523H1754.83C1756.53 996.28 1758.23 996.036 1759.93 995.793H1760.06C1763.22 995.307 1766.38 994.699 1769.54 994.091C1770.39 993.969 1771.37 993.726 1772.22 993.483C1772.83 993.361 1773.31 993.24 1773.92 993.118C1774.77 992.996 1775.63 992.753 1776.48 992.632C1777.21 992.389 1777.94 992.267 1778.67 992.024C1790.83 989.105 1802.63 985.093 1813.94 980.35C1794.6 1006.74 1768.69 1028.02 1738.4 1042C1752.39 1041.03 1766.38 1038.72 1779.88 1034.83C1828.9 1020.36 1870.14 987.403 1894.83 943.02C1889.84 971.109 1878.65 997.86 1862.11 1021.21C1873.91 1013.42 1884.73 1004.43 1894.59 994.212C1921.83 965.759 1939.71 929.645 1945.79 890.855C1949.93 910.067 1951.15 929.888 1949.32 949.465C2037.14 827.017 1956.62 700.07 1922.93 666.631C1922.8 666.388 1922.68 666.266 1922.68 666.023C1922.56 666.144 1922.56 666.144 1922.56 666.266C1922.56 666.144 1922.56 666.144 1922.44 666.023C1922.44 667.482 1922.32 668.941 1922.2 670.4C1921.83 673.197 1921.47 675.872 1920.98 678.547C1920.37 681.222 1919.64 683.897 1918.91 686.572C1918.06 689.126 1917.09 691.801 1915.99 694.355C1914.9 696.787 1913.68 699.34 1912.34 701.772C1911.01 704.082 1909.55 706.514 1907.97 708.703C1906.38 711.013 1904.68 713.202 1902.98 715.269C1901.15 717.458 1899.21 719.404 1897.26 721.349C1896.05 722.444 1894.95 723.416 1893.73 724.389C1892.76 725.24 1891.91 725.97 1890.94 726.821C1888.75 728.523 1886.56 730.104 1884.12 731.563C1881.81 733.022 1879.38 734.482 1876.95 735.698C1874.39 736.914 1871.84 738.008 1869.29 739.102C1866.73 740.075 1864.05 740.926 1861.38 741.656C1858.7 742.385 1855.91 742.993 1853.23 743.48C1850.43 743.966 1847.63 744.209 1844.96 744.453C1843.01 744.574 1841.07 744.696 1839.12 744.696C1836.32 744.696 1833.52 744.453 1830.85 744.209C1828.05 743.966 1825.25 743.601 1822.58 742.993C1819.78 742.506 1817.1 741.777 1814.43 740.926H1814.31C1816.98 740.683 1819.66 740.439 1822.33 739.953C1825.13 739.467 1827.81 738.859 1830.48 738.129C1833.16 737.4 1835.83 736.548 1838.39 735.576C1841.07 734.603 1843.62 733.387 1846.05 732.171C1848.61 730.955 1850.92 729.617 1853.35 728.158C1855.66 726.577 1857.97 724.997 1860.16 723.294C1862.35 721.592 1864.42 719.768 1866.37 717.822C1868.43 715.998 1870.26 713.931 1872.08 711.864C1873.91 709.676 1875.61 707.487 1877.19 705.298C1877.43 704.933 1877.68 704.447 1877.92 704.082C1879.14 702.136 1880.35 700.191 1881.45 698.245C1882.79 695.813 1884 693.381 1885.1 690.828C1886.19 688.274 1887.17 685.721 1888.02 683.046C1888.87 680.492 1889.48 677.817 1890.08 675.142C1890.57 672.345 1891.06 669.67 1891.3 666.995C1891.54 664.198 1891.79 661.402 1891.79 658.726C1891.79 656.781 1891.67 654.835 1891.54 652.89C1891.3 650.093 1890.94 647.418 1890.57 644.743C1890.08 641.946 1889.48 639.271 1888.75 636.596C1887.9 634.042 1887.04 631.367 1886.07 628.814C1885.1 626.26 1883.88 623.707 1882.67 621.275C1881.33 618.843 1879.99 616.411 1878.53 614.1C1876.95 611.79 1875.37 609.601 1873.66 607.413C1871.84 605.345 1870.02 603.278 1868.07 601.211C1867.1 600.238 1866 599.144 1864.91 598.171C1859.43 593.915 1853.72 589.903 1848 586.255C1847.15 585.768 1846.42 585.404 1845.57 585.039C1841.55 582.485 1837.78 581.147 1834.01 579.931Z" fill="white"/>
<path d="M1373 1500.09L1563 1171H1943.01L2133 1500.09L1943.01 1829.18H1563L1373 1500.09Z" fill="#0091E2"/>
<path d="M1984.32 1458.66C1983.01 1457.6 1971.11 1448.65 1946 1448.65C1939.35 1448.65 1932.7 1449.14 1926.14 1450.37C1921.29 1416.96 1893.72 1400.7 1892.49 1399.96L1885.76 1396.02L1881.33 1402.43C1875.75 1411.05 1871.73 1420.49 1869.35 1430.5C1864.83 1449.55 1867.54 1467.45 1877.22 1482.72C1865.57 1489.2 1846.78 1490.84 1843 1490.93H1532.71C1524.58 1490.93 1518.02 1497.49 1518.02 1505.62C1517.69 1532.8 1522.28 1559.81 1531.56 1585.34C1542.23 1613.42 1558.15 1634.02 1578.83 1646.67C1601.97 1660.87 1639.64 1669 1682.4 1669C1701.68 1669.08 1720.97 1667.27 1739.93 1663.74C1766.27 1658.9 1791.63 1649.7 1814.94 1636.49C1834.14 1625.32 1851.46 1611.2 1866.15 1594.53C1890.68 1566.7 1905.37 1535.67 1916.29 1508.17H1920.64C1947.56 1508.17 1964.13 1497.41 1973.24 1488.38C1979.32 1482.63 1984.08 1475.66 1987.11 1467.86L1989 1462.19L1984.32 1458.66ZM1561.43 1481.98H1603.04C1605.01 1481.98 1606.65 1480.34 1606.65 1478.37V1441.34C1606.65 1439.37 1605.01 1437.73 1603.04 1437.65H1561.43C1559.46 1437.65 1557.82 1439.29 1557.82 1441.26V1478.37C1557.82 1480.42 1559.46 1481.98 1561.43 1481.98ZM1618.79 1481.98H1660.4C1662.37 1481.98 1664.01 1480.34 1664.01 1478.37V1441.34C1664.01 1439.37 1662.37 1437.73 1660.4 1437.65H1618.79C1616.74 1437.65 1615.1 1439.29 1615.1 1441.34V1478.37C1615.1 1480.42 1616.74 1481.98 1618.79 1481.98ZM1676.9 1482.06H1718.51C1720.48 1482.06 1722.12 1480.42 1722.12 1478.45V1441.42C1722.12 1439.45 1720.48 1437.81 1718.51 1437.73H1676.9C1674.93 1437.73 1673.29 1439.37 1673.29 1441.34V1478.45C1673.29 1480.42 1674.93 1481.98 1676.9 1482.06ZM1734.43 1482.06H1776.04C1778.01 1482.06 1779.65 1480.42 1779.73 1478.45V1441.42C1779.73 1439.37 1778.09 1437.73 1776.04 1437.73H1734.43C1732.46 1437.73 1730.82 1439.37 1730.82 1441.34V1478.45C1730.82 1480.42 1732.38 1482.06 1734.43 1482.06ZM1618.71 1428.7H1660.32C1662.29 1428.7 1663.93 1427.05 1663.93 1425V1387.98C1663.93 1386.01 1662.29 1384.36 1660.32 1384.36H1618.71C1616.66 1384.36 1615.1 1386.01 1615.02 1387.98V1425C1615.1 1427.05 1616.74 1428.7 1618.71 1428.7ZM1676.9 1428.7H1718.51C1720.48 1428.7 1722.12 1427.05 1722.12 1425V1387.98C1722.12 1386.01 1720.48 1384.36 1718.51 1384.36H1676.9C1674.93 1384.36 1673.29 1386.01 1673.29 1387.98V1425C1673.29 1427.05 1674.93 1428.7 1676.9 1428.7ZM1734.43 1428.7H1776.04C1778.09 1428.7 1779.65 1427.05 1779.73 1425V1387.98C1779.73 1385.92 1778.09 1384.36 1776.04 1384.36H1734.43C1732.46 1384.36 1730.82 1386.01 1730.82 1387.98V1425C1730.82 1427.05 1732.38 1428.7 1734.43 1428.7ZM1734.43 1375.42H1776.04C1778.09 1375.42 1779.73 1373.77 1779.73 1371.72V1334.61C1779.73 1332.64 1778.09 1331 1776.04 1331H1734.43C1732.46 1331 1730.82 1332.64 1730.82 1334.61V1371.72C1730.82 1373.77 1732.38 1375.42 1734.43 1375.42ZM1792.37 1482.06H1833.98C1835.94 1482.06 1837.59 1480.42 1837.59 1478.45V1441.42C1837.59 1439.37 1835.94 1437.81 1833.98 1437.73H1792.37C1790.4 1437.73 1788.76 1439.37 1788.76 1441.34V1478.45C1788.76 1480.42 1790.4 1482.06 1792.37 1482.06Z" fill="white"/>
<path d="M773 1846.09L963.001 1517H1343.01L1533 1846.09L1343.01 2175.18H963.001L773 1846.09Z" fill="white"/>
<path d="M1153 1590C1011.8 1590 897 1704.8 897 1846C897 1987.2 1011.8 2102 1153 2102C1197.8 2102 1239.8 2090.4 1276.2 2070.4L1090.6 1811.2V1957.6H1063.4V1757.2H1090.6L1292.6 2060.4C1362.6 2014.8 1409 1936 1409 1846C1409 1704.8 1294.2 1590 1153 1590ZM1241.4 1928.4L1211.4 1883.2V1757.2H1241.4V1928.4Z" fill="black"/>
<path d="M173 1499.09L363.001 1170H743.011L933 1499.09L743.011 1828.18H363.001L173 1499.09Z" fill="#61DAFB"/>
<path d="M552.5 1551C580.943 1551 604 1527.72 604 1499C604 1470.28 580.943 1447 552.5 1447C524.057 1447 501 1470.28 501 1499C501 1527.72 524.057 1551 552.5 1551Z" fill="white"/>
<path d="M749.287 1413.58C739.288 1409.94 728.835 1406.31 717.928 1403.13C720.655 1392.22 722.927 1381.31 724.745 1370.86C734.289 1310.89 723.836 1268.63 694.75 1252.27C686.115 1247.27 676.571 1245 665.664 1245C633.851 1245 593.403 1268.63 552.5 1308.16C511.597 1268.63 471.149 1245 439.336 1245C428.429 1245 418.885 1247.27 410.25 1252.27C381.164 1269.08 370.711 1311.34 380.255 1370.86C382.073 1381.31 384.345 1392.22 387.072 1403.13C376.165 1406.31 365.712 1409.49 355.713 1413.58C298.904 1435.39 268 1465.38 268 1499C268 1532.62 299.359 1562.61 355.713 1584.42C365.712 1588.06 376.165 1591.69 387.072 1594.87C384.345 1605.78 382.073 1616.69 380.255 1627.14C370.711 1687.11 381.164 1729.37 410.25 1745.73C418.885 1750.73 428.429 1753 439.336 1753C471.604 1753 512.052 1729.37 552.5 1689.84C593.403 1729.37 633.851 1753 665.664 1753C676.571 1753 686.115 1750.73 694.75 1745.73C723.836 1728.92 734.289 1686.66 724.745 1627.14C722.927 1616.69 720.655 1605.78 717.928 1594.87C728.835 1591.69 739.288 1588.51 749.287 1584.42C806.096 1562.61 837 1532.62 837 1499C837 1465.38 806.096 1435.39 749.287 1413.58ZM682.025 1274.99C700.658 1285.89 707.021 1319.52 699.295 1367.23C697.931 1376.77 695.659 1386.77 692.932 1397.22C669.3 1391.77 644.304 1388.13 617.944 1385.86C602.492 1364.05 586.585 1344.51 570.679 1326.79C604.31 1293.62 638.395 1270.9 666.118 1270.9C672.026 1270.9 677.48 1272.26 682.025 1274.99ZM631.124 1544.44C622.943 1558.98 613.399 1573.52 603.401 1588.06C586.585 1589.42 569.77 1589.88 552.5 1589.88C534.776 1589.88 517.96 1589.42 501.599 1588.06C491.601 1573.52 482.511 1558.98 474.331 1544.44C465.696 1529.44 457.515 1513.99 450.244 1499C457.515 1484.01 465.696 1468.56 474.331 1453.56C482.511 1439.02 492.055 1424.48 502.054 1409.94C518.869 1408.58 535.685 1408.12 552.954 1408.12C570.679 1408.12 587.494 1408.58 603.855 1409.94C613.854 1424.48 622.943 1439.02 631.124 1453.56C639.759 1468.56 647.939 1484.01 655.211 1499C647.485 1513.99 639.759 1528.99 631.124 1544.44ZM668.845 1529.44C675.662 1545.35 681.116 1560.8 686.115 1576.25C670.663 1579.88 654.302 1582.61 637.032 1584.88C642.486 1576.25 648.394 1567.16 653.393 1557.62C658.847 1548.07 663.846 1538.53 668.845 1529.44ZM552.5 1652.58C541.593 1640.77 531.14 1628.04 521.141 1614.87C531.594 1615.32 542.047 1615.78 552.5 1615.78C562.953 1615.78 573.406 1615.32 583.859 1614.87C573.86 1628.04 563.407 1640.77 552.5 1652.58ZM467.968 1584.42C450.698 1582.15 434.337 1579.43 418.885 1575.79C423.884 1560.8 429.338 1544.89 436.155 1528.99C441.154 1538.08 446.153 1547.62 451.607 1556.71C457.061 1566.7 462.514 1575.34 467.968 1584.42ZM436.155 1468.56C429.338 1452.65 423.884 1437.2 418.885 1421.75C434.337 1418.12 450.698 1415.39 467.968 1413.12C462.514 1421.75 456.606 1430.84 451.607 1440.38C446.153 1449.93 441.154 1459.47 436.155 1468.56ZM552.5 1345.42C563.407 1357.23 573.86 1369.96 583.859 1383.13C573.406 1382.68 562.953 1382.22 552.5 1382.22C542.047 1382.22 531.594 1382.68 521.141 1383.13C531.14 1369.96 541.593 1357.23 552.5 1345.42ZM653.393 1440.84L637.032 1413.58C654.302 1415.85 670.663 1418.57 686.115 1422.21C681.116 1437.2 675.662 1453.11 668.845 1469.01C663.846 1459.47 658.847 1449.93 653.393 1440.84ZM405.705 1367.23C397.979 1319.52 404.342 1285.89 422.975 1274.99C427.52 1272.26 432.974 1270.9 438.882 1270.9C466.15 1270.9 500.236 1293.16 534.321 1326.79C518.415 1344.06 502.508 1364.05 487.056 1385.86C460.696 1388.13 435.7 1392.22 412.068 1397.22C409.341 1386.77 407.523 1376.77 405.705 1367.23ZM293.45 1499C293.45 1477.64 319.355 1454.92 364.803 1438.11C373.892 1434.48 383.891 1431.3 393.889 1428.57C401.161 1451.29 410.25 1475.37 421.157 1499.45C410.25 1523.54 400.706 1547.16 393.889 1569.88C331.172 1551.71 293.45 1524.45 293.45 1499ZM422.975 1723.01C404.342 1712.11 397.979 1678.48 405.705 1630.77C407.069 1621.23 409.341 1611.23 412.068 1600.78C435.7 1606.23 460.696 1609.87 487.056 1612.14C502.508 1633.95 518.415 1653.49 534.321 1671.21C500.69 1704.38 466.605 1727.1 438.882 1727.1C432.974 1727.1 427.52 1725.74 422.975 1723.01ZM699.295 1630.77C707.021 1678.48 700.658 1712.11 682.025 1723.01C677.48 1725.74 672.026 1727.1 666.118 1727.1C638.85 1727.1 604.764 1704.84 570.679 1671.21C586.585 1653.94 602.492 1633.95 617.944 1612.14C644.304 1609.87 669.3 1605.78 692.932 1600.78C695.659 1611.23 697.477 1621.23 699.295 1630.77ZM740.197 1559.89C731.108 1563.52 721.109 1566.7 711.111 1569.43C703.839 1546.71 694.75 1522.63 683.843 1498.55C694.75 1474.46 704.294 1450.84 711.111 1428.12C773.828 1446.29 811.55 1473.55 811.55 1499C811.55 1520.36 785.19 1543.08 740.197 1559.89Z" fill="white"/>
<path d="M173 806.092L363.001 477H743.011L933 806.092L743.011 1135.18H363.001L173 806.092Z" fill="#83CD29"/>
<path d="M770.345 658.101L575.824 545.237C563.556 538.254 547.583 538.254 535.218 545.237L338.619 658.101C325.959 665.379 317 679.056 317 693.686V919.115C317 933.745 326.193 947.427 338.853 954.745L390.795 984.225C415.622 996.443 424.395 996.443 435.693 996.443C472.451 996.443 493.449 974.232 493.449 935.491V712.936C493.449 709.793 491.812 705.116 488.724 705.116H463.92C460.779 705.116 453.748 709.793 453.748 712.931V935.486C453.748 952.66 438.203 969.749 409.15 955.234L355.479 924.321C353.609 923.307 352.29 921.267 352.29 919.115V693.686C352.29 691.562 354.738 689.428 356.622 688.339L552.585 575.669C554.416 574.633 557.107 574.633 558.933 575.669L752.506 688.313C754.359 689.428 753.706 691.495 753.706 693.686V919.115C753.706 921.267 754.513 923.36 752.682 924.396L558.21 1037.13C556.542 1038.13 554.473 1038.13 552.647 1037.13L502.769 1007.38C501.265 1006.51 499.479 1006.2 498.036 1007C484.159 1014.86 481.6 1015.91 468.583 1020.42C465.38 1021.53 460.656 1023.47 470.391 1028.92L535.668 1067.51C541.9 1071.1 548.97 1073 556.167 1073C563.41 1073 570.504 1071.12 576.754 1067.51L770.341 954.745C783.001 947.375 789 933.745 789 919.115V693.686C789 679.056 783.001 665.414 770.345 658.101ZM616.566 883.394C564.84 883.394 553.446 869.134 549.647 843.432C549.206 840.663 546.855 837.353 544.036 837.353H518.756C515.628 837.353 513.114 841.144 513.114 844.256C513.114 877.165 531.019 917.039 616.57 917.039C678.499 917.039 714.005 892.994 714.005 850.44C714.005 808.248 685.478 797.175 625.419 789.232C564.712 781.214 558.545 777.163 558.545 762.952C558.545 751.236 563.768 735.61 608.718 735.61C648.882 735.61 663.686 744.223 669.778 771.274C670.299 773.818 672.623 775.642 675.248 775.642H700.63C702.192 775.642 703.683 775.012 704.777 773.897C705.835 772.698 706.396 771.195 706.254 769.582C702.324 722.999 671.353 701.29 608.714 701.29C552.996 701.29 519.757 724.802 519.757 764.213C519.757 806.961 552.828 818.774 606.314 824.059C670.299 830.327 675.274 839.672 675.274 852.247C675.274 874.089 657.727 883.394 616.566 883.394Z" fill="white"/>
<path d="M773 1153.09L963.001 824H1343.01L1533 1153.09L1343.01 1482.18H963.001L773 1153.09Z" fill="#F0DB4F"/>
<path d="M1381.15 1307.15C1377.48 1284.31 1362.58 1265.12 1318.46 1247.23C1303.13 1240.18 1286.04 1235.14 1280.95 1223.52C1279.14 1216.76 1278.9 1212.95 1280.05 1208.86C1283.33 1195.58 1299.18 1191.44 1311.75 1195.25C1319.84 1197.96 1327.5 1204.2 1332.12 1214.15C1353.73 1200.15 1353.68 1200.25 1368.77 1190.63C1363.25 1182.07 1360.3 1178.11 1356.68 1174.45C1343.69 1159.93 1325.98 1152.46 1297.66 1153.03L1282.91 1154.94C1268.77 1158.51 1255.3 1165.93 1247.4 1175.88C1223.7 1202.77 1230.46 1249.85 1259.3 1269.22C1287.72 1290.55 1329.46 1295.4 1334.79 1315.34C1339.98 1339.76 1316.85 1347.66 1293.86 1344.85C1276.91 1341.33 1267.49 1332.72 1257.3 1317.06C1238.55 1327.91 1238.55 1327.91 1219.27 1339C1223.84 1348.99 1228.64 1353.52 1236.31 1362.18C1272.58 1398.97 1363.35 1397.16 1379.63 1341.47C1380.29 1339.56 1384.67 1326.81 1381.15 1307.15ZM1193.61 1155.98H1146.77L1146.58 1277.07C1146.58 1302.82 1147.91 1326.43 1143.72 1333.66C1136.87 1347.89 1119.12 1346.13 1111.02 1343.37C1102.79 1339.32 1098.6 1333.57 1093.75 1325.43C1092.42 1323.09 1091.42 1321.29 1091.08 1321.15L1053 1344.47C1059.33 1357.46 1068.66 1368.74 1080.61 1376.07C1098.46 1386.78 1122.44 1390.07 1147.53 1384.31C1163.86 1379.55 1177.95 1369.7 1185.32 1354.7C1195.99 1335.04 1193.7 1311.25 1193.6 1284.93C1193.84 1241.99 1193.61 1199.05 1193.61 1155.98Z" fill="#323330"/>
<circle cx="1153" cy="1153" r="311" fill="#F0DB4F"/>
<path d="M1381.15 1307.15C1377.48 1284.31 1362.58 1265.12 1318.46 1247.23C1303.13 1240.18 1286.04 1235.14 1280.95 1223.52C1279.14 1216.76 1278.9 1212.95 1280.05 1208.86C1283.33 1195.58 1299.18 1191.44 1311.75 1195.25C1319.84 1197.96 1327.5 1204.2 1332.12 1214.15C1353.73 1200.15 1353.68 1200.25 1368.77 1190.63C1363.25 1182.07 1360.3 1178.11 1356.68 1174.45C1343.69 1159.93 1325.98 1152.46 1297.66 1153.03L1282.91 1154.94C1268.77 1158.51 1255.3 1165.93 1247.4 1175.88C1223.7 1202.77 1230.46 1249.85 1259.3 1269.22C1287.72 1290.55 1329.46 1295.4 1334.79 1315.34C1339.98 1339.76 1316.85 1347.66 1293.86 1344.85C1276.91 1341.33 1267.49 1332.72 1257.3 1317.06C1238.55 1327.91 1238.55 1327.91 1219.27 1339C1223.84 1348.99 1228.64 1353.52 1236.31 1362.18C1272.58 1398.97 1363.35 1397.16 1379.63 1341.47C1380.29 1339.56 1384.67 1326.81 1381.15 1307.15ZM1193.61 1155.98H1146.77L1146.58 1277.07C1146.58 1302.82 1147.91 1326.43 1143.72 1333.66C1136.87 1347.89 1119.12 1346.13 1111.02 1343.37C1102.79 1339.32 1098.6 1333.57 1093.75 1325.43C1092.42 1323.09 1091.42 1321.29 1091.08 1321.15L1053 1344.47C1059.33 1357.46 1068.66 1368.74 1080.61 1376.07C1098.46 1386.78 1122.44 1390.07 1147.53 1384.31C1163.86 1379.55 1177.95 1369.7 1185.32 1354.7C1195.99 1335.04 1193.7 1311.25 1193.6 1284.93C1193.84 1241.99 1193.61 1199.05 1193.61 1155.98Z" fill="#323330"/>
</svg>
